
<svg aria-hidden="true" style="position: absolute; width: 0; height: 0; overflow: hidden;" version="1.1" xmlns="http://www.w3.org/2000/svg" xmlns:xlink="http://www.w3.org/1999/xlink">
<defs>
<symbol id="fuel" viewBox="0 0 32 32">
<path d="M7.573 4.035c-1.083 0.204-1.93 1.021-2.177 2.069l-0.004 0.019c-0.042 0.2-0.059 3.403-0.059 11.080v10.797h13.334v-9.973h1.966l0.021 3.586c0.021 3.978 0.005 3.787 0.389 4.563 0.662 1.341 2.262 2.086 3.704 1.725 0.682-0.171 1.078-0.395 1.579-0.888 0.354-0.347 0.474-0.51 0.648-0.88 0.381-0.805 0.358-0.322 0.358-7.813 0-7.574 0.027-7.032-0.382-7.867-0.186-0.376-0.349-0.552-2.88-3.093l-2.682-2.693-0.707 0.706-0.707 0.707 2.814 2.816-0.288 0.147c-0.782 0.399-1.375 1.074-1.659 1.893l-0.007 0.023c-0.299 0.925-0.168 2.010 0.338 2.792 0.301 0.466 0.552 0.723 0.997 1.021 0.516 0.344 1.15 0.549 1.832 0.549 0.37 0 0.726-0.060 1.059-0.172l-0.023 0.007 0.299-0.101-0.029 9.984-0.117 0.218c-0.419 0.782-1.419 0.981-2.054 0.406-0.125-0.118-0.233-0.251-0.322-0.398l-0.005-0.008c-0.115-0.216-0.117-0.251-0.144-3.685-0.027-3.422-0.029-3.47-0.147-3.782-0.296-0.786-0.83-1.318-1.638-1.63-0.28-0.109-0.438-0.128-1.267-0.149l-0.946-0.022v-4.81c0-4.144-0.011-4.854-0.082-5.128-0.232-0.904-0.8-1.534-1.706-1.896l-0.32-0.128-4.427-0.008c-0.407-0.002-0.888-0.004-1.369-0.004-1.122 0-2.242 0.007-3.361 0.021l0.17-0.002zM16 10v3.333h-8v-6.666h8v3.333zM24.621 10.832c0.419 0.227 0.698 0.663 0.698 1.164 0 0.106-0.012 0.209-0.036 0.307l0.002-0.009c-0.138 0.592-0.661 1.027-1.286 1.027-0.364 0-0.693-0.147-0.932-0.386v0c-0.243-0.238-0.393-0.57-0.393-0.937s0.15-0.697 0.392-0.935l0-0c0.24-0.239 0.57-0.386 0.935-0.386 0.227 0 0.441 0.057 0.627 0.158l-0.007-0.003zM16 20.667v4.666h-8v-9.333h8v4.667z"></path>
</symbol>
<symbol id="heart-def" viewBox="0 0 33 32">
<path d="M9.723 2.484c-1.652 0.055-3.429 0.663-4.815 1.645-0.592 0.42-1.503 1.309-1.913 1.871-1.199 1.635-1.772 3.361-1.772 5.333 0 1.969 0.565 3.673 1.769 5.333 0.444 0.613 12.656 12.831 13 13.007 0.365 0.187 0.984 0.187 1.349 0 0.344-0.176 12.556-12.393 13-13.007 1.211-1.669 1.769-3.363 1.769-5.361 0-2.4-0.912-4.571-2.64-6.277-1.566-1.565-3.73-2.534-6.12-2.534-0.026 0-0.052 0-0.078 0l0.004-0c-1.317 0.001-2.307 0.199-3.5 0.703-1.030 0.435-1.911 1.032-2.653 1.769l0.001-0.001-0.459 0.443-0.459-0.444c-0.742-0.734-1.622-1.33-2.598-1.744l-0.054-0.020c-1.027-0.457-2.224-0.723-3.484-0.723-0.123 0-0.245 0.003-0.367 0.008l0.017-0.001zM10.711 5.58c0.791 0.067 1.823 0.436 2.535 0.905 0.223 0.147 0.853 0.709 1.449 1.293 1.209 1.183 1.369 1.287 1.972 1.287s0.763-0.104 1.972-1.287c0.615-0.603 1.225-1.145 1.463-1.301 1.661-1.097 3.833-1.236 5.672-0.363 1.521 0.723 2.635 2.071 3.099 3.747 0.139 0.503 0.153 0.641 0.153 1.472s-0.015 0.969-0.153 1.472c-0.218 0.767-0.553 1.437-0.991 2.026l0.012-0.017c-0.191 0.251-2.633 2.736-5.779 5.88l-5.448 5.444-5.448-5.444c-3.145-3.144-5.588-5.629-5.779-5.88-0.425-0.573-0.761-1.242-0.968-1.966l-0.011-0.044c-0.139-0.503-0.153-0.641-0.153-1.472s0.015-0.969 0.153-1.472c0.543-2 2.075-3.548 4.026-4.102l0.041-0.010c0.479-0.137 1.315-0.245 1.667-0.213l0.516 0.044z"></path>
</symbol>
<symbol id="heart-filled" viewBox="0 0 32 32">
<path d="M8.080 2.587c-3.539 0.563-6.399 3.156-7.245 6.565-0.166 0.614-0.261 1.319-0.261 2.047 0 0.047 0 0.095 0.001 0.142l-0-0.007c0 1.955 0.555 3.659 1.709 5.253 0.373 0.515 12.744 12.917 13.049 13.083 0.307 0.167 1.028 0.167 1.333 0 0.304-0.164 12.615-12.507 13.023-13.056 1.171-1.573 1.732-3.287 1.732-5.28 0-1.437-0.292-2.719-0.901-3.947-0.873-1.761-2.5-3.323-4.28-4.108-1.033-0.487-2.244-0.772-3.522-0.772-0.041 0-0.083 0-0.124 0.001l0.006-0c-0.027-0-0.059-0-0.091-0-1.668 0-3.225 0.472-4.546 1.29l0.037-0.021c-0.463 0.276-0.889 0.605-1.479 1.144l-0.519 0.473-0.585-0.531c-1.395-1.267-2.871-1.979-4.711-2.273-0.624-0.1-2.008-0.101-2.627-0.003z"></path>
</symbol>
<symbol id="kitchen" viewBox="0 0 32 32">
<path d="M24.827 2.926c-0.269 0.123-1.811 1.69-2.608 2.646-2.163 2.6-3.542 5.23-4.184 7.974-0.358 1.533-0.491 2.762-0.526 4.91-0.032 1.904-0.021 1.997 0.264 2.323 0.336 0.382 0.173 0.363 3.427 0.392l2.933 0.027v1.6l-0.269 0.034c-0.289 0.021-0.544 0.151-0.727 0.348l-0.001 0.001c-0.307 0.323-0.309 0.342-0.309 2.829 0.002 2.107 0.010 2.299 0.101 2.496 0.069 0.137 0.152 0.255 0.252 0.357l-0-0c0.293 0.274 0.466 0.309 1.499 0.309 1.046-0.002 1.23-0.045 1.518-0.352 0.334-0.357 0.31 0.645 0.309-12.832-0.002-11.842-0.005-12.29-0.101-12.496-0.202-0.402-0.611-0.672-1.083-0.672-0.179 0-0.349 0.039-0.502 0.109l0.008-0.003zM6.16 4.259c-0.284 0.144-0.502 0.384-0.612 0.678l-0.003 0.009c-0.042 0.139-0.053 0.979-0.038 2.762 0.022 2.827 0.018 2.789 0.398 3.691 0.574 1.362 1.934 2.557 3.322 2.92l0.24 0.062 0.026 7.010c0.030 7.731 0.002 7.138 0.355 7.474 0.217 0.193 0.504 0.311 0.818 0.311s0.602-0.118 0.82-0.312l-0.001 0.001c0.354-0.336 0.326 0.258 0.355-7.474l0.027-7.010 0.24-0.062c1.386-0.363 2.746-1.558 3.32-2.92 0.381-0.902 0.378-0.864 0.4-3.691 0.014-1.782 0.002-2.622-0.040-2.762-0.112-0.302-0.329-0.543-0.606-0.683l-0.007-0.003c-0.146-0.063-0.315-0.099-0.493-0.099-0.319 0-0.611 0.117-0.835 0.31l0.002-0.001c-0.336 0.32-0.325 0.235-0.358 2.918-0.035 2.693-0.038 2.72-0.381 3.323-0.254 0.45-0.987 1.13-1.214 1.13-0.037 0-0.054-1.122-0.054-3.389 0-2.942-0.011-3.414-0.083-3.586-0.392-0.941-1.787-0.941-2.181 0-0.072 0.171-0.083 0.643-0.083 3.586 0 2.267-0.018 3.389-0.054 3.389-0.227 0-0.958-0.68-1.214-1.13-0.342-0.603-0.346-0.63-0.379-3.323-0.034-2.683-0.024-2.598-0.36-2.918-0.222-0.192-0.513-0.308-0.832-0.308-0.178 0-0.347 0.036-0.501 0.102l0.008-0.003zM24.136 18.76c-0.021 0.051-0.496 0.067-2.131 0.067-1.158 0-2.114-0.019-2.125-0.040-0.042-0.086 0.066-2.118 0.146-2.742 0.424-3.293 1.589-5.96 3.76-8.602l0.347-0.424 0.014 5.837c0.008 3.211 0.002 5.867-0.011 5.904z"></path>
</symbol>
<symbol id="automatic" viewBox="0 0 32 32">
<path d="M5.666 2.934c-1.301 0.341-2.4 1.448-2.734 2.752-0.068 0.295-0.107 0.633-0.107 0.981s0.039 0.686 0.113 1.011l-0.006-0.030c0.275 1.074 1.019 1.97 2.082 2.506l0.454 0.229 0.026 1.811 0.027 1.813 0.2 0.405c0.264 0.533 0.67 0.939 1.203 1.202l0.405 0.2 3.472 0.054 0.027 4.402 0.026 4.403 0.2 0.405c0.264 0.533 0.67 0.939 1.203 1.203l0.405 0.2 2.43 0.016c1.664 0.011 2.493-0.002 2.63-0.042 0.451-0.133 0.782-0.6 0.784-1.109 0.001-0.014 0.001-0.031 0.001-0.047 0-0.458-0.27-0.853-0.66-1.035l-0.007-0.003c-0.197-0.091-0.384-0.099-2.357-0.099-1.878-0.002-2.152-0.011-2.226-0.086-0.077-0.075-0.083-0.506-0.072-4.146l0.014-4.062 2.267-0.027c2.478-0.029 2.413-0.021 2.73-0.355 0.429-0.451 0.408-1.259-0.043-1.682-0.346-0.325-0.101-0.31-5.349-0.31-4.31 0-4.806-0.008-4.882-0.085-0.074-0.074-0.083-0.27-0.070-1.555l0.014-1.47 0.453-0.229c1.062-0.536 1.806-1.432 2.082-2.506 0.068-0.295 0.107-0.633 0.107-0.981s-0.039-0.686-0.113-1.011l0.006 0.030c-0.373-1.344-1.41-2.382-2.726-2.749l-0.028-0.007c-0.296-0.066-0.635-0.104-0.984-0.104-0.354 0-0.699 0.039-1.030 0.113l0.031-0.006zM7.197 5.318c0.531 0.189 0.92 0.762 0.92 1.35 0 0.004 0 0.008 0 0.013 0 0.786-0.638 1.424-1.424 1.424-0.009 0-0.018-0-0.027-0l0.001 0c-1 0-1.678-0.934-1.384-1.909 0.085-0.283 0.419-0.672 0.702-0.816 0.406-0.208 0.754-0.226 1.211-0.062zM22.16 9.595c-0.138 0.067-0.255 0.151-0.357 0.251l0-0c-0.318 0.341-0.31 0.216-0.309 4.165 0.002 3.405 0.006 3.627 0.101 3.829 0.4 0.867 1.662 0.899 2.13 0.053 0.069-0.125 0.094-0.36 0.115-1.093l0.027-0.933 0.773-0.032c1.122-0.046 1.589-0.24 2.294-0.95 0.438-0.443 0.742-0.974 0.848-1.488 0.035-0.218 0.055-0.469 0.055-0.725 0-0.26-0.021-0.514-0.060-0.763l0.004 0.027c-0.226-1.093-1.291-2.158-2.384-2.384-0.163-0.034-0.861-0.058-1.653-0.058-1.221 0.002-1.394 0.013-1.584 0.101zM25.075 11.989c0.227 0.144 0.375 0.393 0.375 0.678 0 0.286-0.15 0.537-0.376 0.679l-0.003 0.002c-0.152 0.094-0.269 0.114-0.693 0.117l-0.51 0.003-0.016-0.744c-0.004-0.088-0.007-0.192-0.007-0.296 0-0.185 0.008-0.368 0.023-0.549l-0.002 0.024c0.048-0.125 0.976-0.058 1.21 0.086zM22.16 21.595c-0.138 0.067-0.255 0.151-0.357 0.251l0-0c-0.315 0.336-0.31 0.282-0.309 3.499 0.002 2.755 0.008 2.962 0.101 3.162 0.124 0.263 0.335 0.468 0.596 0.581l0.008 0.003c0.318 0.133 2.234 0.117 2.782-0.022 1.344-0.373 2.381-1.411 2.747-2.728l0.007-0.028c0.144-0.558 0.144-1.403 0-1.962-0.372-1.344-1.41-2.381-2.726-2.747l-0.027-0.007c-0.346-0.088-0.589-0.106-1.509-0.104-0.955 0.002-1.126 0.014-1.312 0.101zM24.587 24.010c0.517 0.221 0.864 0.754 0.864 1.326 0 0.752-0.594 1.389-1.344 1.446l-0.24 0.018-0.014-1.413c-0.005-0.17-0.007-0.37-0.007-0.57 0-0.32 0.007-0.638 0.020-0.955l-0.002 0.045c0.035-0.090 0.395-0.038 0.723 0.102z"></path>
</symbol>
<symbol id="air-conditioner" viewBox="0 0 32 32">
<path d="M2.587 0.038c-0.397 0.121-0.741 0.277-1.061 0.469l0.021-0.012c-0.602 0.412-1.071 0.977-1.357 1.639l-0.009 0.025-0.154 0.373-0.014 6.504c-0.013 5.838-0.006 6.534 0.070 6.8 0.315 1.090 1.269 2.040 2.397 2.386 0.307 0.094 0.854 0.098 13.52 0.098s13.213-0.003 13.52-0.098c1.128-0.346 2.082-1.296 2.397-2.386 0.077-0.266 0.083-0.962 0.070-6.8l-0.014-6.504-0.154-0.373c-0.376-0.901-1.078-1.603-1.955-1.97l-0.024-0.009-0.373-0.154-13.387-0.008c-7.363-0.003-13.435 0.005-13.493 0.019zM29.138 2.507c0.109 0.074 0.262 0.227 0.344 0.341l0.146 0.21v12.17l-0.131 0.186c-0.119 0.193-0.294 0.342-0.502 0.426l-0.007 0.002c-0.192 0.091-0.341 0.102-1.427 0.104l-1.213 0.002-0.002-1.8c0-1.84-0.032-2.261-0.214-2.779-0.352-1.002-1.307-1.869-2.398-2.176-0.328-0.094-0.726-0.099-7.733-0.099-6.982 0-7.405 0.006-7.728 0.098-1.206 0.338-2.14 1.258-2.494 2.429l-0.007 0.025c-0.066 0.221-0.086 0.672-0.104 2.288l-0.022 2.014-1.208-0.002c-1.058-0.002-1.237-0.014-1.424-0.099-0.28-0.128-0.547-0.408-0.613-0.643-0.034-0.12-0.053-2.376-0.053-6.098 0-4.856 0.013-5.939 0.072-6.082 0.133-0.259 0.336-0.466 0.585-0.6l0.007-0.004c0.133-0.058 2.442-0.069 13.046-0.059l12.883 0.011 0.197 0.134zM23.179 11.546c0.169 0.053 0.314 0.14 0.434 0.253l-0-0c0.326 0.339 0.334 0.389 0.334 2.36v1.789h-15.894l0.002-1.8c0.002-1.992 0.010-2.050 0.358-2.378 0.328-0.307 0.029-0.296 7.565-0.299 5.96-0.003 6.973 0.008 7.202 0.075zM8.792 21.714c-0.16 0.059-0.298 0.142-0.418 0.245l0.002-0.002c-0.405 0.346-0.4 0.322-0.429 2.203l-0.027 1.68-0.146 0.312c-0.352 0.75-1.030 1.208-1.794 1.208-0.685 0-1.182 0.28-1.37 0.773-0.053 0.129-0.084 0.279-0.084 0.436 0 0.455 0.26 0.85 0.639 1.044l0.007 0.003c0.29 0.154 0.304 0.155 0.934 0.125 0.718-0.034 1.099-0.122 1.67-0.384 1.353-0.637 2.316-1.905 2.514-3.415l0.002-0.022c0.035-0.27 0.053-1.045 0.042-1.92-0.018-1.579-0.026-1.632-0.33-1.965-0.264-0.293-0.81-0.437-1.214-0.322zM15.619 21.725c-0.262 0.101-0.478 0.276-0.626 0.499l-0.003 0.005-0.138 0.198-0.014 4.376-0.013 4.376 0.123 0.237c0.077 0.147 0.222 0.304 0.381 0.411 0.234 0.158 0.291 0.173 0.67 0.173s0.437-0.014 0.67-0.173c0.157-0.106 0.284-0.243 0.376-0.404l0.126-0.239v-4.318c0-3.898-0.008-4.334-0.088-4.501-0.129-0.247-0.322-0.446-0.556-0.58l-0.007-0.004c-0.157-0.068-0.339-0.107-0.531-0.107-0.132 0-0.26 0.019-0.381 0.054l0.010-0.002zM22.483 21.733c-0.379 0.129-0.668 0.433-0.774 0.812l-0.002 0.008c-0.088 0.315-0.067 3.005 0.026 3.542 0.245 1.459 1.186 2.654 2.463 3.25l0.027 0.011c0.571 0.262 0.952 0.35 1.67 0.384 0.63 0.030 0.645 0.029 0.934-0.125 0.394-0.208 0.6-0.514 0.63-0.934 0.058-0.805-0.504-1.322-1.438-1.322-0.387 0-0.805-0.138-1.106-0.363-0.301-0.212-0.537-0.498-0.683-0.832l-0.005-0.013-0.146-0.312-0.027-1.68c-0.029-1.882-0.024-1.858-0.427-2.203-0.2-0.18-0.467-0.291-0.759-0.291-0.138 0-0.269 0.024-0.391 0.069l0.008-0.003z"></path>
</symbol>
<symbol id="alcove" viewBox="0 0 46 32">
<path d="M17.295 0.071c-0.357 0.11-0.647 0.297-0.952 0.615-0.168 0.175-0.507 0.495-0.757 0.711l-0.451 0.394-13.269 0.075-0.354 0.175c-0.539 0.265-1.022 0.733-1.261 1.218l-0.214 0.435v23.706l0.215 0.325c0.149 0.224 0.336 0.381 0.609 0.507l0.395 0.184 6.171 0.003 0.17 0.56c0.691 2.277 3.335 3.571 5.649 2.767 1.27-0.442 2.358-1.525 2.707-2.691l0.162-0.542c0.024-0.075 1.718-0.095 8.137-0.095h8.106l0.047 0.291c0.131 0.824 1.057 2.081 1.909 2.594 0.827 0.497 1.353 0.645 2.331 0.651 0.726 0.005 0.968-0.025 1.409-0.173 1.371-0.457 2.425-1.527 2.852-2.876l0.009-0.031 0.131-0.419 1.704-0.041c1.021-0.024 1.785-0.075 1.905-0.128 0.33-0.143 0.766-0.571 0.914-0.897 0.127-0.281 0.138-0.582 0.139-3.771 0-3.685-0.014-3.856-0.379-4.613-0.263-0.541-0.846-1.123-1.426-1.425-0.283-0.147-1.069-0.482-1.745-0.745l-1.229-0.477-1.467-3.361c-0.807-1.848-1.549-3.503-1.649-3.677-0.229-0.394-0.819-0.953-1.231-1.163-0.697-0.355-1.022-0.387-3.878-0.387h-2.688v-0.991h10.101l0.339-0.171c0.671-0.339 1.006-1.179 0.731-1.835-0.168-0.402-2.36-3.599-2.734-3.987-0.221-0.21-0.476-0.388-0.755-0.525l-0.018-0.008-0.465-0.216-9.867-0.013c-5.426-0.007-9.952 0.014-10.057 0.046zM37.219 1.587c0.266 0.162 2.663 3.629 2.59 3.746-0.030 0.049-1.925 0.075-5.381 0.075-3.512 0-5.384 0.027-5.48 0.079-0.394 0.21-0.377-0.288-0.377 11.003v10.48h-12.4l-0.174-0.539c-0.565-1.758-2.365-3.047-4.242-3.040-1.848 0.007-3.637 1.305-4.157 3.018l-0.17 0.56-5.981 0.001v-3.2h1.143v-1.371h-1.143v-9.152c0-9.147 0-9.151 0.159-9.435 0.088-0.155 0.269-0.349 0.4-0.429 0.231-0.139 0.518-0.147 6.907-0.184l6.666-0.038 0.343-0.205c0.189-0.112 0.634-0.498 0.99-0.857l0.646-0.653h9.715c9.282 0 9.727 0.007 9.945 0.139zM4.762 7.382c-0.397 0.183-0.673 0.448-0.87 0.834-0.152 0.297-0.159 0.426-0.159 2.848l0.001 2.536 0.229 0.399c0.169 0.294 0.334 0.459 0.629 0.629l0.399 0.229h9.904l0.399-0.229c0.295-0.169 0.459-0.335 0.629-0.629l0.229-0.399 0.001-2.536c0-2.343-0.010-2.559-0.144-2.821-0.194-0.378-0.5-0.677-0.873-0.857l-0.011-0.005c-0.286-0.131-0.613-0.141-5.181-0.141-4.576 0-4.895 0.009-5.181 0.141zM19.341 7.392c-0.35 0.185-0.73 0.64-0.827 0.989-0.046 0.166-0.074 3.209-0.074 7.976l-0.001 7.707 0.198 0.235 0.198 0.234h7.063l0.427-0.368v-15.746l-0.163-0.305c-0.169-0.329-0.433-0.59-0.756-0.749l-0.010-0.004c-0.211-0.106-0.609-0.122-3.009-0.12-2.583 0.003-2.784 0.014-3.045 0.151zM14.663 8.779c0.099 0.143 0.118 0.491 0.118 2.269 0 1.776-0.018 2.125-0.118 2.269l-0.119 0.169h-9.202l-0.119-0.169c-0.099-0.144-0.118-0.493-0.118-2.269 0-1.777 0.018-2.126 0.118-2.269l0.119-0.17h9.202l0.119 0.17zM24.869 8.73c0.025 0.066 0.046 1.163 0.046 2.438v2.318h-5.029v-2.387c0-1.313 0.023-2.41 0.050-2.438 0.029-0.029 1.139-0.051 2.469-0.051 2.134 0 2.423 0.015 2.464 0.121zM35.878 9.408c0.235 0.131 0.491 0.35 0.6 0.514 0.186 0.282 2.76 6.096 2.76 6.235 0 0.045-1.754 0.064-4.59 0.053l-4.591-0.019-0.019-3.529-0.021-3.529 5.449 0.048 0.411 0.227zM24.896 19.029l0.019 4.134h-5.030v-8.307l4.991 0.040 0.019 4.134zM41.601 18.134c1.622 0.627 1.711 0.671 2.043 0.999 0.511 0.504 0.579 0.735 0.609 2.067l0.026 1.2h-1.157v1.371h1.146l-0.021 1.581-0.021 1.582h-3.17l-0.189-0.559c-0.128-0.367-0.276-0.681-0.453-0.977l0.013 0.024c-0.363-0.566-1.105-1.218-1.744-1.533-1.765-0.869-3.757-0.547-5.13 0.827-0.573 0.574-1.058 1.405-1.147 1.962l-0.047 0.293h-2.342v-9.371h10.202l1.379 0.534zM13.029 25.078c0.638 0.298 1.097 0.751 1.416 1.395 0.251 0.511 0.275 0.614 0.275 1.213 0 0.569-0.030 0.72-0.23 1.146-0.417 0.907-1.248 1.561-2.244 1.723l-0.017 0.002c-0.898 0.158-1.918-0.193-2.6-0.895-0.685-0.704-0.969-1.865-0.682-2.777 0.271-0.857 1.008-1.616 1.873-1.926 0.541-0.194 1.67-0.134 2.209 0.118zM37.983 25.102c0.553 0.271 1.094 0.797 1.382 1.345 0.2 0.378 0.216 0.475 0.216 1.248 0 0.809-0.009 0.856-0.258 1.314-1.158 2.136-4.24 2.086-5.302-0.086-0.278-0.567-0.346-1.415-0.166-2.037 0.245-0.841 0.952-1.582 1.817-1.902 0.631-0.234 1.705-0.179 2.311 0.117z"></path>
</symbol>
<symbol id="bed" viewBox="0 0 32 32">
<path d="M7.526 5.016c-1.166 0.306-2.214 1.36-2.514 2.531-0.101 0.394-0.106 0.592-0.106 3.605v3.189l-0.278 0.141c-0.997 0.499-1.885 1.477-2.35 2.586-0.381 0.906-0.374 0.811-0.397 5.17-0.024 4.333-0.035 4.171 0.317 4.531 0.243 0.25 0.445 0.336 0.784 0.339 0.011 0 0.023 0.001 0.036 0.001 0.295 0 0.563-0.115 0.762-0.302l-0.001 0.001c0.222-0.202 0.293-0.41 0.328-0.96 0.029-0.464 0.048-0.539 0.155-0.627 0.118-0.096 0.486-0.099 11.738-0.099s11.619 0.003 11.738 0.099c0.107 0.088 0.126 0.163 0.155 0.627 0.035 0.55 0.106 0.758 0.328 0.96 0.227 0.206 0.485 0.304 0.797 0.301 0.014 0.001 0.030 0.001 0.046 0.001 0.295 0 0.559-0.131 0.737-0.339l0.001-0.001c0.352-0.36 0.341-0.2 0.317-4.533-0.024-4.355-0.018-4.266-0.397-5.168-0.466-1.109-1.354-2.086-2.35-2.586l-0.278-0.141v-3.189c0-3.013-0.005-3.211-0.106-3.605-0.302-1.182-1.352-2.232-2.534-2.534-0.408-0.104-0.59-0.106-8.475-0.102-7.789 0.002-8.070 0.005-8.451 0.106zM24.066 7.245c0.299 0.147 0.654 0.531 0.742 0.802 0.074 0.226 0.133 3.443 0.062 3.413-0.845-0.383-1.009-0.464-1.172-0.545l0.674 0.303c-0.231-0.117-0.499-0.213-0.78-0.274l-0.023-0.004c-0.557-0.093-5.792-0.078-6.243 0.018-0.427 0.103-0.802 0.274-1.134 0.503l0.011-0.007-0.202 0.133-0.254-0.163c-0.338-0.23-0.737-0.399-1.167-0.483l-0.020-0.003c-0.478-0.077-5.666-0.075-6.13 0.003-0.304 0.066-0.572 0.162-0.823 0.287l0.020-0.009-0.494 0.24c-0.059 0.027-0.048-2.867 0.014-3.197 0.111-0.53 0.505-0.947 1.014-1.089l0.010-0.002c0.226-0.054 1.835-0.066 7.962-0.059l7.68 0.010 0.253 0.125zM14.373 13.219c0.248 0.114 0.315 0.184 0.427 0.451l0.082 0.197h-6.773l0.056-0.147c0.106-0.228 0.28-0.41 0.496-0.522l0.006-0.003c0.126-0.056 0.715-0.072 2.826-0.072 2.467 0 2.683 0.006 2.88 0.096zM23.322 13.194c0.228 0.111 0.408 0.295 0.511 0.52l0.003 0.007 0.056 0.147h-6.773l0.082-0.197c0.112-0.267 0.179-0.338 0.427-0.451 0.197-0.090 0.416-0.098 2.867-0.098 2.139-0.002 2.69 0.013 2.827 0.072zM25.523 16.165c0.702 0.126 1.499 0.666 1.893 1.28 0.096 0.149 0.235 0.43 0.31 0.626l0.139 0.357 0.016 2.226 0.018 2.227h-23.792v-2.043c0-1.227 0.022-2.17 0.058-2.36 0.205-1.133 1.238-2.139 2.395-2.333 0.074-0.013 4.299-0.026 9.39-0.030 6.403-0.005 9.354 0.011 9.573 0.051z"></path>
</symbol>
<symbol id="calendar" viewBox="0 0 32 32">
<path d="M10.187 1.578c-0.13 0.061-0.242 0.137-0.34 0.227l0.001-0.001c-0.299 0.285-0.326 0.389-0.355 1.397l-0.026 0.933-1.814 0.030c-2 0.032-2.054 0.040-2.752 0.405-0.961 0.51-1.674 1.381-1.963 2.428l-0.006 0.028c-0.106 0.408-0.107 0.594-0.106 10.315 0.002 9.67 0.003 9.907 0.106 10.309 0.338 1.314 1.44 2.418 2.755 2.754 0.402 0.102 0.632 0.106 10.314 0.106s9.912-0.003 10.314-0.106c1.315-0.336 2.418-1.44 2.755-2.754 0.102-0.402 0.104-0.638 0.106-10.309 0.002-9.722 0-9.907-0.106-10.315-0.296-1.075-1.008-1.946-1.948-2.446l-0.021-0.010c-0.698-0.365-0.752-0.373-2.752-0.405l-1.814-0.030-0.026-0.933c-0.029-1.008-0.056-1.112-0.355-1.397-0.217-0.193-0.504-0.311-0.818-0.311s-0.602 0.118-0.82 0.312l0.001-0.001c-0.301 0.285-0.326 0.389-0.355 1.397l-0.027 0.933h-8.266l-0.027-0.933c-0.029-1.008-0.054-1.112-0.355-1.397-0.224-0.193-0.518-0.31-0.839-0.31-0.165 0-0.322 0.031-0.467 0.087l0.009-0.003zM9.493 7.467c0.029 1.008 0.056 1.112 0.355 1.397 0.55 0.523 1.504 0.368 1.877-0.304 0.069-0.126 0.094-0.36 0.115-1.093l0.027-0.934h8.266l0.027 0.934c0.029 1.008 0.054 1.112 0.355 1.397 0.217 0.193 0.504 0.311 0.818 0.311s0.602-0.118 0.82-0.312l-0.001 0.001c0.299-0.285 0.326-0.389 0.355-1.397l0.026-0.934h1.547c1.51 0.002 1.554 0.003 1.826 0.126 0.342 0.155 0.658 0.488 0.792 0.837 0.094 0.245 0.102 0.427 0.102 2.451v2.186h-21.6v-2.16c0-2.459 0.008-2.514 0.381-2.93 0.438-0.488 0.632-0.528 2.472-0.518l1.414 0.008 0.026 0.934zM26.8 20.72c0 5.957-0.003 6.197-0.102 6.45-0.155 0.37-0.433 0.664-0.782 0.834l-0.009 0.004-0.278 0.125h-9.6c-9.315 0-9.608-0.003-9.864-0.101-0.37-0.156-0.663-0.435-0.833-0.784l-0.004-0.010-0.126-0.278-0.014-6.158c-0.008-3.387-0.003-6.189 0.011-6.227 0.022-0.054 2.058-0.066 10.814-0.054l10.789 0.013v6.187z"></path>
</symbol>
<symbol id="cd" viewBox="0 0 32 32">
<path d="M14.72 2.859c-1.77 0.213-3.034 0.578-4.507 1.298-1.446 0.709-2.344 1.354-3.523 2.533s-1.824 2.077-2.533 3.523c-0.385 0.741-0.713 1.602-0.939 2.504l-0.018 0.083c-0.296 1.189-0.347 1.659-0.347 3.2s0.051 2.011 0.347 3.2c0.23 0.928 0.496 1.645 0.957 2.587 0.709 1.446 1.354 2.344 2.533 3.523s2.077 1.824 3.523 2.533c0.741 0.385 1.602 0.713 2.504 0.939l0.083 0.018c1.189 0.296 1.659 0.347 3.2 0.347s2.011-0.051 3.2-0.347c1.868-0.488 3.499-1.303 4.913-2.387l-0.033 0.024c0.55-0.414 1.942-1.806 2.357-2.357 1.306-1.697 2.229-3.756 2.602-6.001l0.011-0.079c0.077-0.464 0.098-0.883 0.098-2 0-1.541-0.051-2.011-0.347-3.2-0.488-1.868-1.303-3.499-2.387-4.913l0.024 0.033c-0.414-0.55-1.806-1.942-2.357-2.357-1.464-1.104-3.141-1.923-4.8-2.346-1.094-0.28-1.621-0.342-3.040-0.362-0.209-0.006-0.455-0.009-0.702-0.009-0.288 0-0.574 0.004-0.86 0.013l0.042-0.001zM17.547 5.315c3.373 0.474 6.371 2.582 7.994 5.626 0.787 1.468 1.25 3.212 1.25 5.063 0 0.996-0.134 1.961-0.384 2.877l0.018-0.076c-0.906 3.31-3.277 5.979-6.419 7.222-1.191 0.484-2.572 0.765-4.018 0.765-0.926 0-1.824-0.115-2.683-0.331l0.075 0.016c-3.141-0.81-5.681-2.913-7.060-5.694l-0.028-0.063c-0.679-1.333-1.076-2.906-1.076-4.573 0-0.052 0-0.103 0.001-0.155l-0 0.008c-0-0.031-0.001-0.068-0.001-0.105 0-2.203 0.679-4.247 1.838-5.935l-0.023 0.036c1.96-2.907 5.241-4.793 8.961-4.793 0.549 0 1.088 0.041 1.615 0.12l-0.059-0.007zM15.149 7.522c-3.074 0.317-5.638 2.228-6.873 4.884l-0.022 0.052c-0.454 0.99-0.646 1.758-0.744 2.966l-0.064 0.784 0.157 0.302c0.095 0.188 0.226 0.345 0.386 0.466l0.003 0.002c0.214 0.155 0.264 0.168 0.67 0.168 0.4 0 0.461-0.014 0.666-0.157 0.374-0.259 0.493-0.525 0.541-1.221 0.115-1.637 0.666-2.918 1.726-4.029 1.074-1.122 2.478-1.752 4.174-1.872 0.696-0.048 0.962-0.166 1.221-0.541 0.142-0.205 0.157-0.266 0.157-0.661s-0.014-0.458-0.157-0.662c-0.235-0.339-0.547-0.499-1.010-0.515-0.042-0.001-0.091-0.001-0.14-0.001-0.244 0-0.485 0.012-0.722 0.036l0.030-0.002zM15.218 11.542c-1.781 0.339-3.126 1.579-3.598 3.31-0.163 0.603-0.165 1.685-0.002 2.294 0.45 1.572 1.663 2.786 3.202 3.227l0.033 0.008c0.605 0.162 1.69 0.162 2.294 0 1.277-0.365 2.309-1.224 2.893-2.353l0.012-0.026c0.338-0.674 0.443-1.152 0.443-2.003 0-0.566-0.024-0.811-0.114-1.147-0.414-1.547-1.71-2.84-3.235-3.23-0.55-0.139-1.427-0.176-1.93-0.080zM16.554 13.947c0.744 0.194 1.373 0.859 1.531 1.621 0.022 0.117 0.035 0.252 0.035 0.391 0 0.843-0.472 1.576-1.167 1.948l-0.012 0.006c-0.272 0.134-0.592 0.213-0.93 0.213-0.743 0-1.398-0.38-1.78-0.956l-0.005-0.008c-1.075-1.619 0.438-3.707 2.328-3.214z"></path>
</symbol>
<symbol id="cross" viewBox="0 0 32 32">
<path d="M7.468 6.599c-0.329 0.116-0.757 0.554-0.872 0.891-0.054 0.153-0.086 0.33-0.086 0.514 0 0.181 0.030 0.355 0.086 0.517l-0.003-0.011c0.079 0.239 0.415 0.592 3.693 3.877l3.606 3.613-3.606 3.613c-3.278 3.285-3.614 3.638-3.693 3.877-0.191 0.581-0.064 1.126 0.364 1.553 0.427 0.428 0.972 0.555 1.553 0.364 0.239-0.079 0.592-0.415 3.877-3.693l3.613-3.606 3.613 3.606c3.285 3.278 3.638 3.614 3.877 3.693 0.581 0.191 1.126 0.064 1.553-0.364 0.428-0.427 0.555-0.972 0.364-1.553-0.079-0.239-0.415-0.592-3.693-3.877l-3.606-3.613 3.606-3.613c3.278-3.285 3.614-3.638 3.693-3.877 0.191-0.581 0.064-1.126-0.364-1.553-0.427-0.428-0.972-0.555-1.553-0.364-0.239 0.079-0.592 0.415-3.877 3.693l-3.613 3.606-3.613-3.606c-3.285-3.278-3.638-3.614-3.877-3.693-0.153-0.050-0.329-0.079-0.512-0.079-0.19 0-0.372 0.031-0.542 0.088l0.012-0.003z"></path>
</symbol>
<symbol id="freezer" viewBox="0 0 32 32">
<path d="M7.973 2.027c-1.040 0.208-1.907 1-2.28 2.080l-0.12 0.346-0.014 10.32c-0.010 6.69 0.003 10.512 0.038 10.862 0.029 0.299 0.102 0.669 0.16 0.822 0.234 0.613 0.818 1.291 1.358 1.574 0.266 0.139 0.288 0.165 0.312 0.371 0.062 0.558 0.522 1.166 1.093 1.446 0.306 0.15 0.314 0.15 1.52 0.168 1.376 0.019 1.592-0.018 2.038-0.333 0.346-0.246 0.589-0.562 0.728-0.946l0.115-0.312h6.17l0.035 0.146c0.122 0.504 0.584 1.053 1.086 1.29 0.291 0.136 0.304 0.138 1.627 0.138s1.336-0.002 1.627-0.138c0.558-0.262 0.97-0.784 1.094-1.381 0.058-0.282 0.072-0.299 0.376-0.477 0.638-0.371 1.162-1.043 1.39-1.792 0.094-0.306 0.099-0.782 0.099-10.986 0-8.862-0.013-10.717-0.074-10.96-0.264-1.059-1.251-2.022-2.29-2.235-0.334-0.069-15.746-0.074-16.091-0.005zM23.971 4.234c0.125 0.104 0.226 0.232 0.299 0.376l0.003 0.007c0.096 0.218 0.099 0.398 0.086 3.846l-0.013 3.618h-16.694v-7.368l0.147-0.221c0.093-0.132 0.208-0.242 0.342-0.325l0.005-0.003c0.197-0.104 0.309-0.106 7.91-0.094l7.71 0.011 0.203 0.154zM9.893 5.594c-0.244 0.107-0.433 0.303-0.527 0.545l-0.002 0.007c-0.070 0.168-0.083 0.534-0.083 2.422 0 2.166 0.003 2.232 0.114 2.461 0.163 0.325 0.494 0.545 0.876 0.545 0.013 0 0.027-0 0.040-0.001l-0.002 0c0.008 0 0.018 0 0.027 0 0.156 0 0.305-0.028 0.442-0.080l-0.009 0.003c0.246-0.151 0.434-0.377 0.533-0.646l0.003-0.009c0.074-0.27 0.075-4.344 0-4.613-0.162-0.584-0.85-0.893-1.411-0.635zM24.347 19.923v5.765l-0.144 0.216c-0.097 0.138-0.223 0.25-0.37 0.327l-0.006 0.003-0.234 0.114h-7.586c-6.253 0-7.614-0.013-7.757-0.072-0.271-0.128-0.475-0.36-0.564-0.642l-0.002-0.008c-0.064-0.258-0.086-11.394-0.022-11.458 0.019-0.019 3.782-0.029 8.36-0.021l8.325 0.013v5.763zM10.056 14.406c-0.299 0.076-0.54 0.277-0.671 0.541l-0.003 0.006c-0.093 0.203-0.101 0.386-0.101 2.459 0 2.059 0.008 2.258 0.099 2.456 0.342 0.754 1.382 0.808 1.826 0.094l0.126-0.203v-4.64l-0.141-0.24c-0.184-0.304-0.513-0.504-0.888-0.504-0.088 0-0.173 0.011-0.255 0.032l0.007-0.002z"></path>
</symbol>
<symbol id="fully" viewBox="0 0 46 32">
<path d="M17.295 0.071c-0.357 0.11-0.647 0.297-0.952 0.615-0.168 0.175-0.507 0.495-0.757 0.711l-0.451 0.394-13.269 0.075-0.354 0.175c-0.539 0.265-1.022 0.733-1.261 1.218l-0.214 0.435v23.706l0.215 0.325c0.149 0.224 0.336 0.381 0.609 0.507l0.395 0.184 6.171 0.003 0.17 0.56c0.691 2.277 3.335 3.571 5.649 2.767 1.27-0.442 2.358-1.525 2.707-2.691l0.162-0.542c0.024-0.075 1.718-0.095 8.137-0.095h8.106l0.047 0.291c0.131 0.824 1.057 2.081 1.909 2.594 0.827 0.497 1.353 0.645 2.331 0.651 0.726 0.005 0.968-0.025 1.409-0.173 1.371-0.457 2.425-1.527 2.852-2.876l0.009-0.031 0.131-0.419 1.704-0.041c1.021-0.024 1.785-0.075 1.905-0.128 0.33-0.143 0.766-0.571 0.914-0.897 0.127-0.281 0.138-0.582 0.139-3.771 0-3.685-0.014-3.856-0.379-4.613-0.263-0.541-0.846-1.123-1.426-1.425-0.283-0.147-1.069-0.482-1.745-0.745l-1.229-0.477-1.467-3.361c-0.807-1.848-1.549-3.503-1.649-3.677-0.229-0.394-0.819-0.953-1.231-1.163-0.697-0.355-1.022-0.387-3.878-0.387h-2.688v-0.991h10.101l0.339-0.171c0.671-0.339 1.006-1.179 0.731-1.835-0.168-0.402-2.36-3.599-2.734-3.987-0.221-0.21-0.476-0.388-0.755-0.525l-0.018-0.008-0.465-0.216-9.867-0.013c-5.426-0.007-9.952 0.014-10.057 0.046zM37.219 1.587c0.266 0.162 2.663 3.629 2.59 3.746-0.030 0.049-1.925 0.075-5.381 0.075-3.512 0-5.384 0.027-5.48 0.079-0.394 0.21-0.377-0.288-0.377 11.003v10.48h-12.4l-0.174-0.539c-0.565-1.758-2.365-3.047-4.242-3.040-1.848 0.007-3.637 1.305-4.157 3.018l-0.17 0.56-5.981 0.001v-3.2h1.143v-1.371h-1.143v-9.152c0-9.147 0-9.151 0.159-9.435 0.088-0.155 0.269-0.349 0.4-0.429 0.231-0.139 0.518-0.147 6.907-0.184l6.666-0.038 0.343-0.205c0.189-0.112 0.634-0.498 0.99-0.857l0.646-0.653h9.715c9.282 0 9.727 0.007 9.945 0.139zM19.341 7.392c-0.35 0.185-0.73 0.64-0.827 0.989-0.046 0.166-0.074 3.209-0.074 7.976l-0.001 7.707 0.198 0.235 0.198 0.234h7.063l0.427-0.368v-15.746l-0.163-0.305c-0.169-0.329-0.433-0.59-0.756-0.749l-0.010-0.004c-0.211-0.106-0.609-0.122-3.009-0.12-2.583 0.003-2.784 0.014-3.045 0.151zM24.869 8.73c0.025 0.066 0.046 1.163 0.046 2.438v2.318h-5.029v-2.387c0-1.313 0.023-2.41 0.050-2.438 0.029-0.029 1.139-0.051 2.469-0.051 2.134 0 2.423 0.015 2.464 0.121zM35.878 9.408c0.235 0.131 0.491 0.35 0.6 0.514 0.186 0.282 2.76 6.096 2.76 6.235 0 0.045-1.754 0.064-4.59 0.053l-4.591-0.019-0.019-3.529-0.021-3.529 5.449 0.048 0.411 0.227zM24.896 19.029l0.019 4.134h-5.030v-8.307l4.991 0.040 0.019 4.134zM41.601 18.134c1.622 0.627 1.711 0.671 2.043 0.999 0.511 0.504 0.579 0.735 0.609 2.067l0.026 1.2h-1.157v1.371h1.146l-0.021 1.581-0.021 1.582h-3.17l-0.189-0.559c-0.128-0.367-0.276-0.681-0.453-0.977l0.013 0.024c-0.363-0.566-1.105-1.218-1.744-1.533-1.765-0.869-3.757-0.547-5.13 0.827-0.573 0.574-1.058 1.405-1.147 1.962l-0.047 0.293h-2.342v-9.371h10.202l1.379 0.534zM13.029 25.078c0.638 0.298 1.097 0.751 1.416 1.395 0.251 0.511 0.275 0.614 0.275 1.213 0 0.569-0.030 0.72-0.23 1.146-0.417 0.907-1.248 1.561-2.244 1.723l-0.017 0.002c-0.898 0.158-1.918-0.193-2.6-0.895-0.685-0.704-0.969-1.865-0.682-2.777 0.271-0.857 1.008-1.616 1.873-1.926 0.541-0.194 1.67-0.134 2.209 0.118zM37.983 25.102c0.553 0.271 1.094 0.797 1.382 1.345 0.2 0.378 0.216 0.475 0.216 1.248 0 0.809-0.009 0.856-0.258 1.314-1.158 2.136-4.24 2.086-5.302-0.086-0.278-0.567-0.346-1.415-0.166-2.037 0.245-0.841 0.952-1.582 1.817-1.902 0.631-0.234 1.705-0.179 2.311 0.117z"></path>
</symbol>
<symbol id="gas" viewBox="0 0 32 32">
<path d="M18.667 1.731c-1.842 0.542-3.922 1.938-5.317 3.57-1.661 1.916-2.712 4.401-2.826 7.128l-0.001 0.024c-0.061 1.574 0.17 2.874 0.837 4.693 0.138 0.376 0.118 0.6-0.075 0.851-0.269 0.355-0.787 0.459-1.226 0.246-0.253-0.123-0.646-0.594-1.042-1.243-1.126-1.854-1.318-4.354-0.49-6.384 0.090-0.218 0.155-0.405 0.146-0.413-0.045-0.046-0.875 0.733-1.277 1.195-1.965 2.269-2.917 5.39-2.493 8.173 0.254 1.67 1.013 3.603 1.85 4.714 1.524 1.988 3.653 3.445 6.109 4.1l0.079 0.018c0.941 0.242 1.701 0.339 2.925 0.379 4.854 0.157 8.718-1.858 10.453-5.45 0.334-0.691 0.616-1.55 0.754-2.293 0.147-0.787 0.134-2.307-0.024-3.048-0.254-1.192-0.621-2.005-1.466-3.262-0.79-1.176-1.501-1.856-3.195-3.056-1.221-0.864-1.584-1.155-2.106-1.686-1.997-2.024-2.565-5.304-1.37-7.904 0.099-0.218 0.176-0.413 0.168-0.434-0.008-0.019-0.195 0.018-0.414 0.082zM17.058 14.040c0.278 0.504 0.67 1.059 1.029 1.451 0.238 0.261 1.598 1.458 2.051 1.805 0.222 0.171 0.77 0.893 0.955 1.262 0.302 0.6 0.418 1.152 0.384 1.842-0.019 0.678-0.199 1.309-0.503 1.863l0.011-0.021c-0.55 1.066-1.394 1.744-2.669 2.154-1.112 0.355-2.109 0.285-3.245-0.229-0.464-0.211-1.413-0.862-1.416-0.973 0-0.019 0.069-0.048 0.155-0.066 0.334-0.066 1.030-0.373 1.402-0.616 0.748-0.493 1.323-1.194 1.649-2.020l0.010-0.029c0.157-0.41 0.166-0.478 0.165-1.13-0.003-0.622-0.022-0.766-0.197-1.424-0.32-1.205-0.381-1.592-0.376-2.416 0.002-0.578 0.027-0.837 0.112-1.146 0.12-0.44 0.21-0.694 0.246-0.694 0.013 0 0.118 0.174 0.237 0.387z"></path>
</symbol>
<symbol id="hob" viewBox="0 0 32 32">
<path d="M3.226 5.589c-0.667 0.234-1.199 0.711-1.5 1.322l-0.007 0.015-0.198 0.402v18.677l0.2 0.405c0.264 0.534 0.67 0.941 1.203 1.203l0.405 0.2h25.344l0.405-0.2c0.533-0.262 0.939-0.669 1.203-1.203l0.2-0.405v-18.677l-0.2-0.405c-0.26-0.527-0.677-0.943-1.188-1.196l-0.015-0.007-0.405-0.2-12.589-0.011c-11.837-0.011-12.606-0.006-12.858 0.080zM10.8 16.667v8.8l-3.395 0.013c-3.035 0.013-3.405 0.005-3.48-0.070-0.077-0.075-0.085-0.925-0.085-8.742 0-7.819 0.008-8.667 0.085-8.744 0.075-0.075 0.445-0.083 3.48-0.070l3.395 0.014v8.8zM28.077 7.923c0.075 0.077 0.083 0.942 0.083 8.744 0 7.808-0.008 8.667-0.083 8.742-0.077 0.075-0.81 0.083-7.48 0.070l-7.397-0.013-0.014-8.747c-0.006-4.811-0.002-8.776 0.013-8.813 0.019-0.053 1.55-0.067 7.41-0.067 6.642 0 7.394 0.008 7.469 0.083zM24.12 9.603c-0.148 0.081-0.273 0.185-0.376 0.307l-0.002 0.002c-0.173 0.221-7.861 11.117-8.082 11.453-0.119 0.177-0.19 0.395-0.19 0.63 0 0.328 0.139 0.624 0.36 0.832l0.001 0.001c0.499 0.485 1.165 0.498 1.637 0.035 0.202-0.198 7.938-11.115 8.245-11.637 0.098-0.165 0.126-0.291 0.126-0.558 0-0.012 0.001-0.027 0.001-0.042 0-0.395-0.201-0.743-0.507-0.946l-0.004-0.003c-0.309-0.213-0.869-0.248-1.21-0.074zM6.941 10.192c-0.261 0.078-0.68 0.52-0.754 0.792-0.040 0.149-0.054 0.754-0.043 1.814l0.016 1.592 0.162 0.23c0.088 0.126 0.264 0.302 0.39 0.39 0.206 0.146 0.272 0.162 0.621 0.162s0.416-0.016 0.621-0.162c0.126-0.088 0.302-0.264 0.392-0.39l0.162-0.23v-3.448l-0.162-0.23c-0.251-0.355-0.538-0.53-0.91-0.555-0.037-0.003-0.081-0.004-0.125-0.004-0.131 0-0.259 0.014-0.381 0.042l0.012-0.002zM6.728 16.83c-0.488 0.246-0.73 0.691-0.691 1.275 0.017 0.43 0.251 0.801 0.595 1.010l0.005 0.003c0.235 0.146 0.306 0.162 0.696 0.162 0.392 0 0.462-0.016 0.696-0.162 0.172-0.109 0.313-0.251 0.419-0.417l0.003-0.005c0.146-0.235 0.162-0.306 0.162-0.696s-0.016-0.461-0.162-0.696c-0.237-0.386-0.578-0.578-1.059-0.6-0.326-0.016-0.418 0.002-0.664 0.126zM6.728 20.83c-0.488 0.246-0.73 0.691-0.691 1.275 0.017 0.43 0.251 0.801 0.595 1.010l0.005 0.003c0.235 0.146 0.306 0.162 0.696 0.162 0.392 0 0.462-0.016 0.696-0.162 0.172-0.109 0.313-0.251 0.419-0.417l0.003-0.005c0.146-0.235 0.162-0.306 0.162-0.696s-0.016-0.461-0.162-0.696c-0.237-0.386-0.578-0.578-1.059-0.6-0.326-0.016-0.418 0.002-0.664 0.126z"></path>
</symbol>
<symbol id="map-pin" viewBox="0 0 29 32">
<path d="M13.392 0.173l-0.624 0.072c-3.318 0.381-6.52 2.17-8.667 4.843-1.797 2.231-2.884 5.099-2.884 8.221 0 0.767 0.066 1.518 0.191 2.249l-0.011-0.078c0.774 4.619 4.195 9.605 9.763 14.232 1.158 0.963 2.434 1.912 2.781 2.069 0.136 0.055 0.294 0.086 0.459 0.086s0.323-0.032 0.468-0.089l-0.009 0.003c0.49-0.222 2.507-1.789 3.933-3.053 2.304-2.043 4.355-4.35 5.76-6.48 2.459-3.723 3.41-7.262 2.901-10.8-0.645-4.389-3.38-8.023-7.145-9.903l-0.076-0.034c-1.169-0.604-2.529-1.044-3.965-1.244l-0.067-0.008c-0.456-0.069-2.438-0.13-2.808-0.086zM15.542 2.595c4.266 0.479 7.751 3.375 9.078 7.269l0.023 0.076c1.162 3.496 0.493 7.045-2.059 10.939-1.477 2.256-3.885 4.851-6.504 7.011-0.854 0.706-1.618 1.293-1.68 1.293s-0.826-0.587-1.68-1.293c-1.018-0.842-1.934-1.681-2.806-2.564l-0.004-0.004c-3.57-3.573-5.672-7.118-6.189-10.443-0.461-2.954 0.434-6.102 2.411-8.486 1.723-2.078 4.35-3.49 7.067-3.797 0.354-0.029 0.766-0.045 1.182-0.045 0.408 0 0.813 0.016 1.214 0.047l-0.053-0.003zM13.456 8.23c-1.95 0.355-3.555 1.846-4.082 3.795-0.115 0.429-0.13 0.562-0.13 1.294-0.002 0.68 0.014 0.883 0.101 1.224 0.474 1.908 1.947 3.381 3.818 3.847l0.036 0.008c0.589 0.149 1.811 0.149 2.4 0 1.907-0.474 3.381-1.947 3.847-3.818l0.008-0.036c0.086-0.341 0.102-0.544 0.101-1.224 0-0.733-0.014-0.866-0.13-1.294-0.53-1.963-2.139-3.451-4.107-3.795-0.28-0.040-0.603-0.064-0.931-0.064s-0.651 0.023-0.968 0.068l0.036-0.004zM15.048 10.616c0.382 0.080 0.888 0.347 1.208 0.637 0.618 0.56 0.928 1.248 0.928 2.059 0 0.837-0.242 1.427-0.816 2-0.571 0.568-1.17 0.816-1.968 0.816s-1.397-0.248-1.968-0.816c-0.574-0.573-0.816-1.163-0.816-2 0-0.797 0.307-1.493 0.898-2.032 0.702-0.642 1.563-0.867 2.534-0.664z"></path>
</symbol>
<symbol id="microwave" viewBox="0 0 32 32">
<path d="M1.878 4.642c-0.762 0.11-1.506 0.776-1.757 1.571-0.098 0.314-0.098 19.261 0 19.574 0.259 0.821 0.989 1.458 1.805 1.574 0.49 0.072 27.706 0.067 28.154-0.003 0.741-0.129 1.349-0.603 1.661-1.247l0.006-0.014 0.173-0.365v-19.466l-0.173-0.365c-0.319-0.66-0.93-1.135-1.66-1.262l-0.014-0.002c-0.413-0.061-27.786-0.058-28.195 0.003zM29.733 16v9.147h-27.466l-0.014-9.094c-0.008-5.002-0.002-9.123 0.011-9.16 0.021-0.053 2.798-0.064 13.747-0.053l13.722 0.013v9.147zM6.357 9.23c-0.837 0.166-1.573 0.955-1.718 1.842-0.069 0.419-0.069 9.437 0 9.856 0.15 0.915 0.888 1.683 1.773 1.846 0.19 0.035 2.613 0.050 6.928 0.040l6.634-0.014 0.386-0.181c0.709-0.333 1.202-0.997 1.299-1.757 0.059-0.464 0.059-9.261 0-9.725-0.11-0.783-0.606-1.431-1.285-1.751l-0.014-0.006-0.386-0.181-6.693-0.008c-3.682-0.005-6.797 0.013-6.923 0.038zM24.987 10.325c-0.038 0.011-0.115 0.029-0.193 0.045l-0.036 0.006c-0.171 0.037-0.547 0.392-0.634 0.595-0.168 0.403-0.050 0.994 0.258 1.28 0.253 0.237 0.469 0.282 1.325 0.282 0.877 0 1.072-0.045 1.35-0.309 0.232-0.221 0.32-0.432 0.325-0.784 0.001-0.014 0.001-0.029 0.001-0.045 0-0.395-0.215-0.739-0.535-0.921l-0.005-0.003c-0.234-0.136-0.29-0.146-0.998-0.158-0.090-0.003-0.196-0.005-0.302-0.005-0.195 0-0.389 0.007-0.581 0.020l0.026-0.001zM19.467 16v4.587h-12.64v-9.174h12.64v4.587zM24.65 15.018c-0.426 0.214-0.57 0.462-0.57 0.982 0 0.526 0.146 0.773 0.581 0.986 0.286 0.141 0.31 0.144 1.146 0.126 0.85-0.019 0.851-0.019 1.083-0.181 0.302-0.204 0.498-0.545 0.498-0.931s-0.196-0.727-0.494-0.929l-0.004-0.003-0.232-0.162-0.862-0.018c-0.845-0.016-0.867-0.013-1.146 0.128z"></path>
</symbol>
<symbol id="paper" viewBox="0 0 32 32">
<path d="M7.333 4.078c-1.216 0.267-2.277 1.197-3.134 2.749-0.629 1.136-1.147 2.931-1.408 4.886-0.115 0.864-0.133 3.491-0.029 4.339 0.19 1.554 0.546 3.035 1.005 4.176 0.741 1.845 1.901 3.154 3.189 3.597 0.382 0.131 0.506 0.147 1.072 0.144 0.579-0.003 0.68-0.019 1.072-0.166 0.506-0.19 0.939-0.458 1.306-0.8l0.262-0.245 0.002 2.074c0.002 1.594 0.019 2.122 0.074 2.275 0.176 0.483 0.612 0.831 1.134 0.876l0.005 0c0.288 0.027 0.442-0.016 2.214-0.603l1.904-0.632 1.885 0.626c1.037 0.344 1.962 0.626 2.056 0.626 0.093 0 1.045-0.146 2.114-0.325l1.946-0.325 1.982 0.331c1.414 0.235 2.051 0.322 2.222 0.298 0.514-0.087 0.924-0.457 1.068-0.941l0.002-0.009c0.048-0.174 0.059-1.974 0.043-7.482-0.018-6.402-0.030-7.326-0.107-7.867-0.219-1.522-0.518-2.741-0.928-3.787-0.456-1.163-0.971-1.979-1.718-2.725-0.437-0.434-0.59-0.549-1.019-0.762-0.877-0.432-0.234-0.405-9.573-0.402-6.674 0.003-8.382 0.018-8.64 0.074zM8.33 6.779c0.798 0.406 1.618 2.029 2.016 3.989 0.72 3.55 0.136 7.862-1.33 9.821-0.546 0.728-1.013 0.893-1.515 0.531-0.914-0.658-1.714-2.63-2.040-5.040-0.133-0.97-0.133-3.19 0-4.16 0.349-2.57 1.229-4.629 2.197-5.139 0.267-0.141 0.402-0.141 0.672-0.002zM24.33 6.779c0.792 0.403 1.618 2.030 2.014 3.968 0.293 1.427 0.286 1.283 0.309 8.040 0.019 6.022 0.016 6.28-0.077 6.278-0.053 0-0.589-0.083-1.189-0.186-0.361-0.071-0.826-0.137-1.297-0.182l-0.063-0.005c-0.147 0-1.085 0.134-2.085 0.299l-1.816 0.302-1.947-0.648c-1.277-0.424-2.026-0.646-2.176-0.646-0.178 0-1.875 0.514-2.6 0.786-0.050 0.018-0.069-1.395-0.085-6.234-0.018-5.528-0.030-6.333-0.11-6.893-0.264-1.842-0.658-3.27-1.23-4.459 0.131 0.314 0.053 0.152-0.026-0.010l-0.21-0.482c-0.010-0.022 2.77-0.040 6.176-0.040 6.182 0 6.194 0 6.411 0.112zM7.515 11.533c-0.28 0.216-0.538 0.67-0.698 1.238-0.176 0.622-0.176 1.838 0 2.453 0.55 1.918 1.814 1.918 2.365 0 0.176-0.614 0.176-1.83 0-2.453-0.256-0.902-0.682-1.411-1.182-1.411-0.21 0-0.301 0.032-0.485 0.173z"></path>
</symbol>
<symbol id="radio" viewBox="0 0 32 32">
<path d="M13.947 4.365l-5.76 2.712-0.555 0.062c-1.904 0.214-3.109 0.709-4.101 1.68-1.027 1.008-1.504 2.197-1.76 4.402-0.080 0.677-0.091 1.394-0.091 5.446s0.011 4.768 0.091 5.445c0.254 2.182 0.704 3.325 1.715 4.357 1.008 1.027 2.197 1.504 4.402 1.76 0.698 0.082 1.549 0.091 8.112 0.091s7.414-0.010 8.112-0.091c2.205-0.256 3.394-0.733 4.402-1.76 1.011-1.032 1.461-2.174 1.715-4.357 0.080-0.677 0.091-1.392 0.091-5.445s-0.011-4.77-0.091-5.446c-0.256-2.205-0.733-3.394-1.76-4.402-1.018-0.997-2.16-1.453-4.277-1.709-0.576-0.069-1.586-0.088-5.758-0.109-2.838-0.013-5.040-0.043-5.013-0.069 0.026-0.026 1.65-0.802 3.61-1.725 1.96-0.922 3.611-1.722 3.672-1.776 0.192-0.196 0.31-0.464 0.31-0.76 0-0.002 0-0.004-0-0.006v0c0-0.598-0.419-1.013-1.024-1.011-0.261 0-0.718 0.205-6.042 2.71zM21.813 9.066c1.768 0.053 2.421 0.11 3.2 0.277 1.786 0.384 2.603 1.208 2.982 3.006 0.182 0.859 0.211 1.258 0.278 3.851 0.051 1.942 0.051 2.992 0 4.933-0.021 1.084-0.063 2.092-0.125 3.095l0.010-0.2c-0.12 1.011-0.397 1.963-0.725 2.493-0.571 0.926-1.65 1.437-3.461 1.64-0.912 0.102-3.675 0.155-7.973 0.155s-7.061-0.053-7.973-0.155c-2.579-0.29-3.626-1.138-4.050-3.28-0.154-0.773-0.186-1.253-0.253-3.747-0.024-0.735-0.038-1.599-0.038-2.466s0.014-1.731 0.042-2.592l-0.003 0.126c0.037-1.357 0.090-2.659 0.117-2.893 0.267-2.25 0.954-3.28 2.531-3.805 0.798-0.266 1.744-0.381 3.574-0.434 1.981-0.056 9.997-0.059 11.866-0.003zM8.443 11.067c-1.253 0.272-2.445 1.474-2.712 2.733-0.047 0.26-0.073 0.56-0.073 0.866s0.027 0.605 0.078 0.897l-0.005-0.031c0.27 1.275 1.467 2.469 2.746 2.739 0.525 0.11 14.533 0.112 15.046 0.002 1.283-0.277 2.475-1.466 2.746-2.741 0.047-0.26 0.073-0.559 0.073-0.865s-0.027-0.605-0.078-0.896l0.005 0.031c-0.27-1.275-1.466-2.467-2.746-2.739-0.509-0.107-14.584-0.104-15.080 0.005zM23.307 13.179c0.577 0.257 0.972 0.826 0.972 1.486s-0.395 1.229-0.962 1.482l-0.010 0.004c-0.282 0.131-0.334 0.138-1.28 0.139l-0.987 0.002-0.027-0.67c-0.024-0.603-0.040-0.691-0.16-0.867-0.158-0.234-0.579-0.462-0.853-0.462s-0.694 0.229-0.853 0.462c-0.12 0.176-0.136 0.264-0.16 0.867l-0.027 0.67h-9.973l-0.294-0.139c-1.054-0.501-1.307-1.827-0.501-2.626 0.228-0.234 0.526-0.399 0.861-0.459l0.010-0.001c0.134-0.024 3.328-0.038 7.098-0.035l6.853 0.008 0.294 0.139zM9.36 19.69c-0.355 0.067-0.954 0.362-1.269 0.626-0.763 0.635-1.104 1.362-1.104 2.352 0 0.774 0.195 1.354 0.635 1.882 1.272 1.531 3.486 1.536 4.747 0.008 0.256-0.309 0.506-0.816 0.584-1.186 0.082-0.382 0.075-1.152-0.013-1.478-0.414-1.549-1.973-2.509-3.581-2.203zM16.88 21.742c-0.334 0.161-0.561 0.497-0.561 0.885 0 0.014 0 0.028 0.001 0.041l-0-0.002c0 0.416 0.187 0.73 0.544 0.912 0.189 0.096 0.371 0.101 3.803 0.101 3.43 0 3.613-0.005 3.802-0.101 0.325-0.159 0.545-0.487 0.545-0.867 0-0.016-0-0.032-0.001-0.048l0 0.002c0.001-0.014 0.001-0.030 0.001-0.046 0-0.38-0.22-0.708-0.539-0.865l-0.006-0.003c-0.189-0.096-0.368-0.101-3.813-0.098-3.195 0.002-3.635 0.011-3.776 0.086zM10.33 21.763c0.359 0.151 0.609 0.498 0.616 0.903v0.001c0 0.282-0.096 0.496-0.314 0.702-0.598 0.565-1.578 0.128-1.578-0.702 0-0.283 0.096-0.496 0.314-0.704 0.166-0.159 0.392-0.257 0.641-0.257 0.115 0 0.225 0.021 0.327 0.059l-0.006-0.002z"></path>
</symbol>
<symbol id="shower" viewBox="0 0 32 32">
<path d="M5.2 4.345c-0.029 0.010-0.117 0.033-0.196 0.050-0.186 0.041-0.452 0.268-0.561 0.478-0.112 0.215-0.113 0.705-0.002 0.914 0.047 0.088 0.722 0.794 1.499 1.57l1.414 1.41-0.175 0.243c-0.658 0.915-1.149 2.153-1.315 3.314-0.084 0.592-0.037 2.066 0.083 2.608 0.213 0.958 0.619 1.921 1.122 2.666l0.236 0.349-0.74 0.746c-0.407 0.411-0.771 0.807-0.808 0.88-0.088 0.173-0.088 0.683 0.001 0.854 0.1 0.193 0.273 0.372 0.45 0.464 0.173 0.090 0.562 0.114 0.805 0.051 0.116-0.030 2.045-1.924 6.977-6.852 3.749-3.745 6.855-6.882 6.902-6.97 0.109-0.206 0.11-0.699 0.002-0.907-0.109-0.195-0.269-0.35-0.461-0.452l-0.006-0.003c-0.171-0.089-0.681-0.089-0.854-0.001-0.073 0.037-0.469 0.401-0.88 0.808l-0.746 0.74-0.349-0.235c-0.727-0.492-1.747-0.922-2.665-1.123-0.545-0.12-2.020-0.167-2.609-0.083-1.161 0.166-2.399 0.657-3.314 1.315l-0.243 0.175-1.41-1.414c-0.776-0.777-1.47-1.445-1.544-1.484-0.14-0.074-0.523-0.143-0.613-0.111zM14.317 7.866c0.233 0.041 0.593 0.13 0.8 0.198 0.412 0.133 1.319 0.577 1.346 0.659 0.009 0.028-1.724 1.79-3.852 3.917-3.7 3.697-3.873 3.862-3.951 3.76-0.123-0.163-0.475-0.919-0.601-1.294-0.313-0.93-0.35-2.137-0.096-3.112 0.735-2.817 3.528-4.632 6.354-4.128zM21.2 12.345c-0.029 0.010-0.117 0.033-0.196 0.050-0.186 0.041-0.452 0.268-0.561 0.478-0.111 0.213-0.113 0.704-0.003 0.914 0.166 0.318 0.551 0.56 0.893 0.56s0.728-0.242 0.894-0.56c0.101-0.194 0.11-0.697 0.015-0.881-0.1-0.189-0.246-0.343-0.424-0.448l-0.005-0.003c-0.141-0.073-0.524-0.142-0.613-0.11zM26.533 13.678c-0.048 0.016-0.114 0.034-0.181 0.048l-0.015 0.003c-0.185 0.040-0.452 0.267-0.561 0.477-0.111 0.214-0.112 0.705-0.003 0.914 0.166 0.318 0.552 0.56 0.894 0.56s0.727-0.242 0.893-0.56c0.102-0.194 0.11-0.697 0.016-0.88-0.1-0.189-0.246-0.343-0.424-0.449l-0.005-0.003c-0.142-0.073-0.525-0.141-0.614-0.11zM17.2 16.345c-0.029 0.010-0.117 0.033-0.196 0.050-0.186 0.041-0.452 0.268-0.561 0.478-0.111 0.213-0.113 0.704-0.003 0.914 0.166 0.318 0.551 0.56 0.893 0.56s0.728-0.242 0.894-0.56c0.101-0.194 0.11-0.697 0.015-0.881-0.1-0.189-0.246-0.343-0.424-0.448l-0.005-0.003c-0.141-0.073-0.524-0.142-0.613-0.11zM22.533 17.678c-0.048 0.016-0.114 0.034-0.181 0.048l-0.015 0.003c-0.185 0.040-0.452 0.267-0.561 0.477-0.111 0.214-0.112 0.705-0.003 0.914 0.166 0.318 0.552 0.56 0.894 0.56s0.727-0.242 0.893-0.56c0.102-0.194 0.11-0.697 0.016-0.88-0.1-0.189-0.246-0.343-0.424-0.449l-0.005-0.003c-0.142-0.073-0.525-0.141-0.614-0.11zM13.2 20.345c-0.029 0.010-0.117 0.033-0.196 0.050-0.186 0.041-0.452 0.268-0.561 0.478-0.111 0.213-0.113 0.704-0.003 0.914 0.166 0.318 0.551 0.56 0.893 0.56s0.728-0.242 0.894-0.56c0.101-0.194 0.11-0.697 0.015-0.881-0.1-0.189-0.246-0.343-0.424-0.448l-0.005-0.003c-0.141-0.073-0.524-0.142-0.613-0.11zM18.533 21.678c-0.048 0.016-0.114 0.034-0.181 0.048l-0.015 0.003c-0.185 0.040-0.452 0.267-0.561 0.477-0.111 0.214-0.112 0.705-0.003 0.914 0.166 0.318 0.552 0.56 0.894 0.56s0.727-0.242 0.893-0.56c0.102-0.194 0.11-0.697 0.016-0.88-0.1-0.189-0.246-0.343-0.424-0.449l-0.005-0.003c-0.142-0.073-0.525-0.141-0.614-0.11zM14.533 25.678c-0.048 0.016-0.114 0.034-0.181 0.048l-0.015 0.003c-0.185 0.040-0.452 0.267-0.561 0.477-0.111 0.214-0.112 0.705-0.003 0.914 0.166 0.318 0.552 0.56 0.894 0.56s0.727-0.242 0.893-0.56c0.102-0.194 0.11-0.697 0.016-0.88-0.1-0.189-0.246-0.343-0.424-0.449l-0.005-0.003c-0.142-0.073-0.525-0.141-0.614-0.11z"></path>
</symbol>
<symbol id="star" viewBox="0 0 32 32">
<path d="M14.72 7.556c-0.686 1.345-1.17 2.226-1.67 3.097l0.214-0.405c-0.321 0.447-0.72 0.815-1.18 1.092l-0.018 0.010c-0.464 0.246-0.874 0.338-3.64 0.81-1.375 0.216-2.269 0.382-3.159 0.562l0.521-0.088c-0.088 0.036 0.186 0.34 1.92 2.122 1.288 1.322 2.090 2.188 2.202 2.378 0.31 0.518 0.45 1.008 0.474 1.64 0.016 0.48-0.036 0.94-0.374 3.266-0.214 1.488-0.372 2.706-0.346 2.706 0.024 0 1.19-0.562 2.59-1.248 1.466-0.72 2.692-1.288 2.892-1.342 0.458-0.12 1.25-0.12 1.708 0 0.2 0.054 1.426 0.622 2.892 1.342 1.4 0.686 2.566 1.248 2.59 1.248 0.026 0-0.132-1.218-0.346-2.706-0.338-2.326-0.39-2.786-0.374-3.266 0.024-0.632 0.164-1.122 0.474-1.64 0.112-0.19 0.91-1.052 2.2-2.378 1.728-1.778 2.010-2.088 1.92-2.122-0.379-0.094-1.273-0.259-2.172-0.41l-0.464-0.064c-2.766-0.472-3.176-0.564-3.64-0.81-0.4-0.214-0.94-0.71-1.198-1.102-0.286-0.466-0.77-1.347-1.238-2.238l-0.218-0.454c-0.63-1.239-1.056-2.019-1.493-2.791l0.213 0.409c-0.014 0-0.59 1.072-1.28 2.382z"></path>
</symbol>
<symbol id="tv" viewBox="0 0 32 32">
<path d="M9.542 1.241c-0.28 0.189-0.422 0.439-0.422 0.744 0 0.144 0.027 0.314 0.059 0.379s1.093 1.152 2.356 2.419l2.298 2.304-6.553 0.038-0.51 0.139c-0.909 0.243-1.686 0.717-2.291 1.355l-0.002 0.002c-0.568 0.581-0.991 1.306-1.208 2.115l-0.008 0.034-0.141 0.51v5.68c0 5.339 0.006 5.705 0.099 6.101 0.414 1.767 1.658 3.092 3.421 3.642l0.48 0.15h17.76l0.48-0.15c1.953-0.609 3.263-2.174 3.492-4.17 0.043-0.378 0.056-2.096 0.042-5.893-0.019-5.338-0.020-5.362-0.138-5.808-0.133-0.503-0.444-1.202-0.707-1.588-0.639-0.936-1.686-1.673-2.819-1.98l-0.51-0.139-6.553-0.038 2.298-2.304c1.263-1.267 2.324-2.355 2.356-2.419s0.059-0.235 0.059-0.379c0-0.001 0-0.002 0-0.003 0-0.476-0.386-0.862-0.862-0.862-0.001 0-0.002 0-0.003 0h0c-0.144 0-0.314 0.027-0.379 0.059-0.064 0.032-1.358 1.298-2.876 2.813l-2.76 2.754-2.76-2.754c-1.518-1.515-2.812-2.781-2.876-2.813-0.205-0.104-0.622-0.072-0.822 0.062zM24.741 8.989c1.070 0.252 2.018 1.2 2.27 2.27 0.122 0.515 0.122 11.015 0.001 11.49-0.144 0.565-0.383 0.978-0.821 1.417-0.363 0.385-0.825 0.673-1.346 0.824l-0.021 0.005c-0.302 0.094-0.722 0.098-8.824 0.098s-8.522-0.004-8.824-0.098c-1.094-0.337-1.916-1.182-2.188-2.246-0.121-0.475-0.121-10.975 0.001-11.49 0.25-1.064 1.19-2.012 2.245-2.268 0.485-0.117 17.010-0.119 17.507-0.002zM11.573 29.218c-0.232 0.136-0.4 0.361-0.458 0.627l-0.001 0.006c-0.077 0.411 0.254 0.934 0.634 1.002 0.095 0.017 2.068 0.024 4.385 0.016l4.214-0.016 0.179-0.128c0.201-0.143 0.378-0.483 0.378-0.725s-0.177-0.582-0.378-0.725l-0.179-0.128-4.294-0.014c-4.102-0.014-4.301-0.010-4.48 0.085z"></path>
</symbol>
<symbol id="users" viewBox="0 0 46 32">
<path d="M12.952 27.619h-6.286c-0.381 0-0.571-0.191-0.762-0.381s-0.381-0.571-0.191-0.952c1.143-3.238 4-5.143 7.238-5.143 4 0 7.238-3.429 7.238-7.429s-3.238-7.81-7.238-7.81c-4 0-7.238 3.429-7.238 7.619 0 1.905 0.762 3.809 1.905 5.143-2.476 1.333-4.381 3.429-5.524 6.286-0.381 1.333-0.19 3.048 0.762 4.381s2.286 2.095 3.81 2.095h6.286c1.143 0 1.905-0.762 1.905-1.905s-0.762-1.905-1.905-1.905zM9.524 13.524c0-2.095 1.524-3.619 3.429-3.619s3.429 1.714 3.429 3.619c0 2.095-1.524 3.619-3.429 3.619s-3.429-1.714-3.429-3.619z"></path>
<path d="M43.619 23.81c-1.333-3.619-4-6.286-7.048-7.81 1.714-1.524 2.666-3.81 2.666-6.476 0-4.952-3.809-8.952-8.381-8.952s-8.381 4-8.381 8.952c0 2.476 0.952 4.762 2.667 6.476-3.048 1.524-5.714 4.19-7.048 7.81-0.952 1.714-0.571 3.619 0.381 5.143s2.667 2.286 4.381 2.286h15.809c1.714 0 3.429-0.952 4.381-2.286 1.143-1.524 1.333-3.429 0.571-5.143zM26.095 9.714c0-2.857 2.095-5.143 4.571-5.143s4.571 2.286 4.571 5.143-2.095 5.143-4.571 5.143c-2.476 0-4.571-2.476-4.571-5.143zM39.809 26.857c-0.19 0.191-0.571 0.762-1.143 0.762h-15.809c-0.762 0-1.143-0.571-1.143-0.762-0.191-0.19-0.571-0.952-0.19-1.714 1.524-4 5.333-6.667 9.333-6.667s7.809 2.667 9.333 6.667c0.19 0.762-0.19 1.524-0.381 1.714z"></path>
</symbol>
<symbol id="van" viewBox="0 0 46 32">
<path d="M17.295 0.071c-0.357 0.11-0.647 0.297-0.952 0.615-0.168 0.175-0.507 0.495-0.757 0.711l-0.451 0.394-13.269 0.075-0.354 0.175c-0.539 0.265-1.022 0.733-1.261 1.218l-0.214 0.435v23.706l0.215 0.325c0.149 0.224 0.336 0.381 0.609 0.507l0.395 0.184 6.171 0.003 0.17 0.56c0.691 2.277 3.335 3.571 5.649 2.767 1.27-0.442 2.358-1.525 2.707-2.691l0.162-0.542c0.024-0.075 1.718-0.095 8.137-0.095h8.106l0.047 0.291c0.131 0.824 1.057 2.081 1.909 2.594 0.827 0.497 1.353 0.645 2.331 0.651 0.726 0.005 0.968-0.025 1.409-0.173 1.371-0.457 2.425-1.527 2.852-2.876l0.009-0.031 0.131-0.419 1.704-0.041c1.021-0.024 1.785-0.075 1.905-0.128 0.33-0.143 0.766-0.571 0.914-0.897 0.127-0.281 0.138-0.582 0.139-3.771 0-3.685-0.014-3.856-0.379-4.613-0.263-0.541-0.846-1.123-1.426-1.425-0.283-0.147-1.069-0.482-1.745-0.745l-1.229-0.477-1.467-3.361c-0.807-1.848-1.549-3.503-1.649-3.677-0.229-0.394-0.819-0.953-1.231-1.163-0.697-0.355-1.022-0.387-3.878-0.387h-2.688v-0.991h10.101l0.339-0.171c0.671-0.339 1.006-1.179 0.731-1.835-0.168-0.402-2.36-3.599-2.734-3.987-0.221-0.21-0.476-0.388-0.755-0.525l-0.018-0.008-0.465-0.216-9.867-0.013c-5.426-0.007-9.952 0.014-10.057 0.046zM37.219 1.587c0.266 0.162 2.663 3.629 2.59 3.746-0.030 0.049-1.925 0.075-5.381 0.075-3.512 0-5.384 0.027-5.48 0.079-0.394 0.21-0.377-0.288-0.377 11.003v10.48h-12.4l-0.174-0.539c-0.565-1.758-2.365-3.047-4.242-3.040-1.848 0.007-3.637 1.305-4.157 3.018l-0.17 0.56-5.981 0.001v-3.2h1.143v-1.371h-1.143v-9.152c0-9.147 0-9.151 0.159-9.435 0.088-0.155 0.269-0.349 0.4-0.429 0.231-0.139 0.518-0.147 6.907-0.184l6.666-0.038 0.343-0.205c0.189-0.112 0.634-0.498 0.99-0.857l0.646-0.653h9.715c9.282 0 9.727 0.007 9.945 0.139zM4.762 7.382c-0.397 0.183-0.673 0.448-0.87 0.834-0.152 0.297-0.159 0.426-0.159 2.848l0.001 2.536 0.229 0.399c0.169 0.294 0.334 0.459 0.629 0.629l0.399 0.229h9.904l0.399-0.229c0.295-0.169 0.459-0.335 0.629-0.629l0.229-0.399 0.001-2.536c0-2.343-0.010-2.559-0.144-2.821-0.194-0.378-0.5-0.677-0.873-0.857l-0.011-0.005c-0.286-0.131-0.613-0.141-5.181-0.141-4.576 0-4.895 0.009-5.181 0.141zM14.663 8.779c0.099 0.143 0.118 0.491 0.118 2.269 0 1.776-0.018 2.125-0.118 2.269l-0.119 0.169h-9.202l-0.119-0.169c-0.099-0.144-0.118-0.493-0.118-2.269 0-1.777 0.018-2.126 0.118-2.269l0.119-0.17h9.202l0.119 0.17zM35.878 9.408c0.235 0.131 0.491 0.35 0.6 0.514 0.186 0.282 2.76 6.096 2.76 6.235 0 0.045-1.754 0.064-4.59 0.053l-4.591-0.019-0.019-3.529-0.021-3.529 5.449 0.048 0.411 0.227zM41.601 18.134c1.622 0.627 1.711 0.671 2.043 0.999 0.511 0.504 0.579 0.735 0.609 2.067l0.026 1.2h-1.157v1.371h1.146l-0.021 1.581-0.021 1.582h-3.17l-0.189-0.559c-0.128-0.367-0.276-0.681-0.453-0.977l0.013 0.024c-0.363-0.566-1.105-1.218-1.744-1.533-1.765-0.869-3.757-0.547-5.13 0.827-0.573 0.574-1.058 1.405-1.147 1.962l-0.047 0.293h-2.342v-9.371h10.202l1.379 0.534zM13.029 25.078c0.638 0.298 1.097 0.751 1.416 1.395 0.251 0.511 0.275 0.614 0.275 1.213 0 0.569-0.030 0.72-0.23 1.146-0.417 0.907-1.248 1.561-2.244 1.723l-0.017 0.002c-0.898 0.158-1.918-0.193-2.6-0.895-0.685-0.704-0.969-1.865-0.682-2.777 0.271-0.857 1.008-1.616 1.873-1.926 0.541-0.194 1.67-0.134 2.209 0.118zM37.983 25.102c0.553 0.271 1.094 0.797 1.382 1.345 0.2 0.378 0.216 0.475 0.216 1.248 0 0.809-0.009 0.856-0.258 1.314-1.158 2.136-4.24 2.086-5.302-0.086-0.278-0.567-0.346-1.415-0.166-2.037 0.245-0.841 0.952-1.582 1.817-1.902 0.631-0.234 1.705-0.179 2.311 0.117z"></path>
</symbol>
<symbol id="water" viewBox="0 0 26 32">
<path d="M12.747 1.739c-0.233 0.053-0.437 0.153-0.611 0.289l0.003-0.003c-0.286 0.213-1.828 2.159-2.715 3.429-2.719 3.88-4.051 7.166-3.932 9.69 0.064 1.35 0.305 2.356 0.811 3.391 1.267 2.588 3.963 3.991 7.311 3.799 3.526-0.2 6.016-2.232 6.763-5.516 0.146-0.639 0.198-1.17 0.197-1.999 0.001-0.050 0.002-0.109 0.002-0.168 0-0.69-0.095-1.358-0.274-1.991l0.012 0.052c-0.518-2.079-1.764-4.548-3.662-7.257-0.885-1.266-2.425-3.209-2.718-3.432-0.256-0.191-0.578-0.305-0.926-0.305-0.092 0-0.182 0.008-0.269 0.023l0.009-0.001zM13.417 4.128c0.821 0.996 1.871 2.439 2.605 3.585 1.7 2.657 2.572 4.731 2.756 6.551 0.014 0.178 0.021 0.385 0.021 0.593 0 0.527-0.049 1.043-0.143 1.543l0.008-0.052c-0.337 1.625-1.249 2.874-2.611 3.575-1.708 0.879-4.325 0.879-6.033 0-1.367-0.703-2.268-1.939-2.611-3.578-0.12-0.574-0.173-1.554-0.114-2.103 0.222-2.075 1.387-4.612 3.539-7.703 0.741-1.064 2.14-2.86 2.21-2.835 0.017 0.006 0.184 0.197 0.372 0.423zM16.753 14.376c-0.346 0.161-0.542 0.493-0.544 0.921-0.002 0.514-0.249 1.102-0.642 1.527-0.447 0.484-0.975 0.734-1.682 0.798-0.435 0.039-0.567 0.094-0.769 0.318-0.353 0.391-0.265 0.993 0.193 1.32 0.129 0.092 0.186 0.101 0.663 0.1 0.571-0.002 0.933-0.081 1.511-0.327 1.412-0.6 2.421-2.050 2.495-3.583 0.021-0.447 0.015-0.491-0.083-0.673-0.222-0.411-0.734-0.59-1.141-0.399z"></path>
</symbol>
<symbol id="wind" viewBox="0 0 40 32">
<path d="M18.010 0.102c-3.396 0.596-5.97 3.138-6.646 6.562-0.062 0.31-0.098 0.72-0.082 0.912 0.070 0.844 0.976 1.332 1.768 0.95 0.42-0.204 0.594-0.514 0.792-1.402 0.286-1.292 0.73-2.148 1.534-2.964 1.074-1.092 2.504-1.666 4.090-1.648 0.016-0 0.035-0 0.054-0 0.87 0 1.69 0.216 2.408 0.598l-0.028-0.013c2.144 1.044 3.408 3.46 3.008 5.752-0.382 2.192-1.806 3.772-4.022 4.468l-0.586 0.184-19.476 0.066-0.27 0.18c-0.329 0.224-0.542 0.596-0.542 1.018 0 0.476 0.271 0.889 0.667 1.092l0.007 0.003 0.296 0.144 19.452-0.038 0.782-0.212c3.354-0.908 5.716-3.652 6.056-7.038 0.021-0.215 0.033-0.465 0.033-0.718 0-1.251-0.296-2.432-0.822-3.479l0.020 0.045c-1.105-2.236-3.145-3.867-5.595-4.394l-0.053-0.010c-0.69-0.15-2.152-0.18-2.846-0.058zM32.966 11.114c-2.598 0.352-4.712 2.234-5.304 4.72-0.176 0.742-0.2 1.654-0.050 1.932 0.219 0.414 0.647 0.69 1.14 0.69 0.205 0 0.399-0.048 0.572-0.134l-0.007 0.003c0.44-0.214 0.62-0.534 0.694-1.24 0.11-1.034 0.374-1.652 0.992-2.312 0.692-0.74 1.476-1.124 2.464-1.21 1.742-0.15 3.46 1.060 3.896 2.746 0.492 1.908-0.598 3.808-2.562 4.466-0.352 0.118-1.062 0.126-17.166 0.158-15.764 0.030-16.814 0.040-17.012 0.148-0.804 0.44-0.82 1.586-0.030 2.122l0.242 0.162 12.732 0.034c9.088 0.024 12.792 0.056 12.934 0.108 0.856 0.316 1.546 0.892 1.888 1.572 0.938 1.87-0.222 4.080-2.316 4.404-1.642 0.254-3.178-0.826-3.558-2.504-0.122-0.54-0.36-0.88-0.74-1.052-0.816-0.372-1.774 0.208-1.774 1.074 0 0.682 0.41 1.802 0.948 2.588 0.72 1.052 1.96 1.902 3.286 2.252 0.71 0.188 2.154 0.172 2.866-0.032 3.436-0.98 5.126-4.672 3.564-7.788l-0.306-0.612 2.17-0.026c2.086-0.026 2.198-0.034 2.818-0.2 2.137-0.57 3.798-2.187 4.421-4.254l0.011-0.044c0.162-0.532 0.18-0.684 0.18-1.652 0-0.972-0.018-1.12-0.184-1.668-0.687-2.279-2.578-3.986-4.917-4.395l-0.037-0.005c-0.341-0.055-0.734-0.087-1.134-0.087-0.253 0-0.504 0.013-0.751 0.037l0.031-0.003z"></path>
</symbol>
</defs>
</svg>