<svg aria-hidden="true" style="position: absolute; width: 0; height: 0; overflow: hidden;" version="1.1" xmlns="http://www.w3.org/2000/svg" xmlns:xlink="http://www.w3.org/1999/xlink">
<defs>
<symbol id="fuel" viewBox="0 0 32 32">
<path d="M7.573 4.035c-1.083 0.204-1.93 1.021-2.177 2.069l-0.004 0.019c-0.042 0.2-0.059 3.403-0.059 11.080v10.797h13.334v-9.973h1.966l0.021 3.586c0.021 3.978 0.005 3.787 0.389 4.563 0.662 1.341 2.262 2.086 3.704 1.725 0.682-0.171 1.078-0.395 1.579-0.888 0.354-0.347 0.474-0.51 0.648-0.88 0.381-0.805 0.358-0.322 0.358-7.813 0-7.574 0.027-7.032-0.382-7.867-0.186-0.376-0.349-0.552-2.88-3.093l-2.682-2.693-0.707 0.706-0.707 0.707 2.814 2.816-0.288 0.147c-0.782 0.399-1.375 1.074-1.659 1.893l-0.007 0.023c-0.299 0.925-0.168 2.010 0.338 2.792 0.301 0.466 0.552 0.723 0.997 1.021 0.516 0.344 1.15 0.549 1.832 0.549 0.37 0 0.726-0.060 1.059-0.172l-0.023 0.007 0.299-0.101-0.029 9.984-0.117 0.218c-0.419 0.782-1.419 0.981-2.054 0.406-0.125-0.118-0.233-0.251-0.322-0.398l-0.005-0.008c-0.115-0.216-0.117-0.251-0.144-3.685-0.027-3.422-0.029-3.47-0.147-3.782-0.296-0.786-0.83-1.318-1.638-1.63-0.28-0.109-0.438-0.128-1.267-0.149l-0.946-0.022v-4.81c0-4.144-0.011-4.854-0.082-5.128-0.232-0.904-0.8-1.534-1.706-1.896l-0.32-0.128-4.427-0.008c-0.407-0.002-0.888-0.004-1.369-0.004-1.122 0-2.242 0.007-3.361 0.021l0.17-0.002zM16 10v3.333h-8v-6.666h8v3.333zM24.621 10.832c0.419 0.227 0.698 0.663 0.698 1.164 0 0.106-0.012 0.209-0.036 0.307l0.002-0.009c-0.138 0.592-0.661 1.027-1.286 1.027-0.364 0-0.693-0.147-0.932-0.386v0c-0.243-0.238-0.393-0.57-0.393-0.937s0.15-0.697 0.392-0.935l0-0c0.24-0.239 0.57-0.386 0.935-0.386 0.227 0 0.441 0.057 0.627 0.158l-0.007-0.003zM16 20.667v4.666h-8v-9.333h8v4.667z"></path>
</symbol>
<symbol id="icon-heart-def-converted" viewBox="0 0 33 32">
<path d="M9.723 2.484c-1.652 0.055-3.429 0.663-4.815 1.645-0.592 0.42-1.503 1.309-1.913 1.871-1.199 1.635-1.772 3.361-1.772 5.333 0 1.969 0.565 3.673 1.769 5.333 0.444 0.613 12.656 12.831 13 13.007 0.365 0.187 0.984 0.187 1.349 0 0.344-0.176 12.556-12.393 13-13.007 1.211-1.669 1.769-3.363 1.769-5.361 0-2.4-0.912-4.571-2.64-6.277-1.566-1.565-3.73-2.534-6.12-2.534-0.026 0-0.052 0-0.078 0l0.004-0c-1.317 0.001-2.307 0.199-3.5 0.703-1.030 0.435-1.911 1.032-2.653 1.769l0.001-0.001-0.459 0.443-0.459-0.444c-0.742-0.734-1.622-1.33-2.598-1.744l-0.054-0.020c-1.027-0.457-2.224-0.723-3.484-0.723-0.123 0-0.245 0.003-0.367 0.008l0.017-0.001zM10.711 5.58c0.791 0.067 1.823 0.436 2.535 0.905 0.223 0.147 0.853 0.709 1.449 1.293 1.209 1.183 1.369 1.287 1.972 1.287s0.763-0.104 1.972-1.287c0.615-0.603 1.225-1.145 1.463-1.301 1.661-1.097 3.833-1.236 5.672-0.363 1.521 0.723 2.635 2.071 3.099 3.747 0.139 0.503 0.153 0.641 0.153 1.472s-0.015 0.969-0.153 1.472c-0.218 0.767-0.553 1.437-0.991 2.026l0.012-0.017c-0.191 0.251-2.633 2.736-5.779 5.88l-5.448 5.444-5.448-5.444c-3.145-3.144-5.588-5.629-5.779-5.88-0.425-0.573-0.761-1.242-0.968-1.966l-0.011-0.044c-0.139-0.503-0.153-0.641-0.153-1.472s0.015-0.969 0.153-1.472c0.543-2 2.075-3.548 4.026-4.102l0.041-0.010c0.479-0.137 1.315-0.245 1.667-0.213l0.516 0.044z"></path>
</symbol>
<symbol id="icon-heart-filled-converted" viewBox="0 0 32 32">
<path d="M8.080 2.587c-3.539 0.563-6.399 3.156-7.245 6.565-0.166 0.614-0.261 1.319-0.261 2.047 0 0.047 0 0.095 0.001 0.142l-0-0.007c0 1.955 0.555 3.659 1.709 5.253 0.373 0.515 12.744 12.917 13.049 13.083 0.307 0.167 1.028 0.167 1.333 0 0.304-0.164 12.615-12.507 13.023-13.056 1.171-1.573 1.732-3.287 1.732-5.28 0-1.437-0.292-2.719-0.901-3.947-0.873-1.761-2.5-3.323-4.28-4.108-1.033-0.487-2.244-0.772-3.522-0.772-0.041 0-0.083 0-0.124 0.001l0.006-0c-0.027-0-0.059-0-0.091-0-1.668 0-3.225 0.472-4.546 1.29l0.037-0.021c-0.463 0.276-0.889 0.605-1.479 1.144l-0.519 0.473-0.585-0.531c-1.395-1.267-2.871-1.979-4.711-2.273-0.624-0.1-2.008-0.101-2.627-0.003z"></path>
</symbol>
<symbol id="icon-kitchen-converted" viewBox="0 0 32 32">
<path d="M24.827 2.926c-0.269 0.123-1.811 1.69-2.608 2.646-2.163 2.6-3.542 5.23-4.184 7.974-0.358 1.533-0.491 2.762-0.526 4.91-0.032 1.904-0.021 1.997 0.264 2.323 0.336 0.382 0.173 0.363 3.427 0.392l2.933 0.027v1.6l-0.269 0.034c-0.289 0.021-0.544 0.151-0.727 0.348l-0.001 0.001c-0.307 0.323-0.309 0.342-0.309 2.829 0.002 2.107 0.010 2.299 0.101 2.496 0.069 0.137 0.152 0.255 0.252 0.357l-0-0c0.293 0.274 0.466 0.309 1.499 0.309 1.046-0.002 1.23-0.045 1.518-0.352 0.334-0.357 0.31 0.645 0.309-12.832-0.002-11.842-0.005-12.29-0.101-12.496-0.202-0.402-0.611-0.672-1.083-0.672-0.179 0-0.349 0.039-0.502 0.109l0.008-0.003zM6.16 4.259c-0.284 0.144-0.502 0.384-0.612 0.678l-0.003 0.009c-0.042 0.139-0.053 0.979-0.038 2.762 0.022 2.827 0.018 2.789 0.398 3.691 0.574 1.362 1.934 2.557 3.322 2.92l0.24 0.062 0.026 7.010c0.030 7.731 0.002 7.138 0.355 7.474 0.217 0.193 0.504 0.311 0.818 0.311s0.602-0.118 0.82-0.312l-0.001 0.001c0.354-0.336 0.326 0.258 0.355-7.474l0.027-7.010 0.24-0.062c1.386-0.363 2.746-1.558 3.32-2.92 0.381-0.902 0.378-0.864 0.4-3.691 0.014-1.782 0.002-2.622-0.040-2.762-0.112-0.302-0.329-0.543-0.606-0.683l-0.007-0.003c-0.146-0.063-0.315-0.099-0.493-0.099-0.319 0-0.611 0.117-0.835 0.31l0.002-0.001c-0.336 0.32-0.325 0.235-0.358 2.918-0.035 2.693-0.038 2.72-0.381 3.323-0.254 0.45-0.987 1.13-1.214 1.13-0.037 0-0.054-1.122-0.054-3.389 0-2.942-0.011-3.414-0.083-3.586-0.392-0.941-1.787-0.941-2.181 0-0.072 0.171-0.083 0.643-0.083 3.586 0 2.267-0.018 3.389-0.054 3.389-0.227 0-0.958-0.68-1.214-1.13-0.342-0.603-0.346-0.63-0.379-3.323-0.034-2.683-0.024-2.598-0.36-2.918-0.222-0.192-0.513-0.308-0.832-0.308-0.178 0-0.347 0.036-0.501 0.102l0.008-0.003zM24.136 18.76c-0.021 0.051-0.496 0.067-2.131 0.067-1.158 0-2.114-0.019-2.125-0.040-0.042-0.086 0.066-2.118 0.146-2.742 0.424-3.293 1.589-5.96 3.76-8.602l0.347-0.424 0.014 5.837c0.008 3.211 0.002 5.867-0.011 5.904z"></path>
</symbol>
<symbol id="icon-automatic-converted" viewBox="0 0 32 32">
<path d="M5.666 2.934c-1.301 0.341-2.4 1.448-2.734 2.752-0.068 0.295-0.107 0.633-0.107 0.981s0.039 0.686 0.113 1.011l-0.006-0.030c0.275 1.074 1.019 1.97 2.082 2.506l0.454 0.229 0.026 1.811 0.027 1.813 0.2 0.405c0.264 0.533 0.67 0.939 1.203 1.202l0.405 0.2 3.472 0.054 0.027 4.402 0.026 4.403 0.2 0.405c0.264 0.533 0.67 0.939 1.203 1.203l0.405 0.2 2.43 0.016c1.664 0.011 2.493-0.002 2.63-0.042 0.451-0.133 0.782-0.6 0.784-1.109 0.001-0.014 0.001-0.031 0.001-0.047 0-0.458-0.27-0.853-0.66-1.035l-0.007-0.003c-0.197-0.091-0.384-0.099-2.357-0.099-1.878-0.002-2.152-0.011-2.226-0.086-0.077-0.075-0.083-0.506-0.072-4.146l0.014-4.062 2.267-0.027c2.478-0.029 2.413-0.021 2.73-0.355 0.429-0.451 0.408-1.259-0.043-1.682-0.346-0.325-0.101-0.31-5.349-0.31-4.31 0-4.806-0.008-4.882-0.085-0.074-0.074-0.083-0.27-0.070-1.555l0.014-1.47 0.453-0.229c1.062-0.536 1.806-1.432 2.082-2.506 0.068-0.295 0.107-0.633 0.107-0.981s-0.039-0.686-0.113-1.011l0.006 0.030c-0.373-1.344-1.41-2.382-2.726-2.749l-0.028-0.007c-0.296-0.066-0.635-0.104-0.984-0.104-0.354 0-0.699 0.039-1.030 0.113l0.031-0.006zM7.197 5.318c0.531 0.189 0.92 0.762 0.92 1.35 0 0.004 0 0.008 0 0.013 0 0.786-0.638 1.424-1.424 1.424-0.009 0-0.018-0-0.027-0l0.001 0c-1 0-1.678-0.934-1.384-1.909 0.085-0.283 0.419-0.672 0.702-0.816 0.406-0.208 0.754-0.226 1.211-0.062zM22.16 9.595c-0.138 0.067-0.255 0.151-0.357 0.251l0-0c-0.318 0.341-0.31 0.216-0.309 4.165 0.002 3.405 0.006 3.627 0.101 3.829 0.4 0.867 1.662 0.899 2.13 0.053 0.069-0.125 0.094-0.36 0.115-1.093l0.027-0.933 0.773-0.032c1.122-0.046 1.589-0.24 2.294-0.95 0.438-0.443 0.742-0.974 0.848-1.488 0.035-0.218 0.055-0.469 0.055-0.725 0-0.26-0.021-0.514-0.060-0.763l0.004 0.027c-0.226-1.093-1.291-2.158-2.384-2.384-0.163-0.034-0.861-0.058-1.653-0.058-1.221 0.002-1.394 0.013-1.584 0.101zM25.075 11.989c0.227 0.144 0.375 0.393 0.375 0.678 0 0.286-0.15 0.537-0.376 0.679l-0.003 0.002c-0.152 0.094-0.269 0.114-0.693 0.117l-0.51 0.003-0.016-0.744c-0.004-0.088-0.007-0.192-0.007-0.296 0-0.185 0.008-0.368 0.023-0.549l-0.002 0.024c0.048-0.125 0.976-0.058 1.21 0.086zM22.16 21.595c-0.138 0.067-0.255 0.151-0.357 0.251l0-0c-0.315 0.336-0.31 0.282-0.309 3.499 0.002 2.755 0.008 2.962 0.101 3.162 0.124 0.263 0.335 0.468 0.596 0.581l0.008 0.003c0.318 0.133 2.234 0.117 2.782-0.022 1.344-0.373 2.381-1.411 2.747-2.728l0.007-0.028c0.144-0.558 0.144-1.403 0-1.962-0.372-1.344-1.41-2.381-2.726-2.747l-0.027-0.007c-0.346-0.088-0.589-0.106-1.509-0.104-0.955 0.002-1.126 0.014-1.312 0.101zM24.587 24.010c0.517 0.221 0.864 0.754 0.864 1.326 0 0.752-0.594 1.389-1.344 1.446l-0.24 0.018-0.014-1.413c-0.005-0.17-0.007-0.37-0.007-0.57 0-0.32 0.007-0.638 0.020-0.955l-0.002 0.045c0.035-0.090 0.395-0.038 0.723 0.102z"></path>
</symbol>
</defs>
</svg>
